<svg width="86" height="85" viewBox="0 0 86 85" fill="none" xmlns="http://www.w3.org/2000/svg">
<rect x="14.9091" y="14" width="70.9091" height="70.9091" rx="5" fill="#f6f6f6"/>
<path d="M41.7579 41.078C41.4998 41.078 41.2522 41.1847 41.0697 41.3747C40.8872 41.5647 40.7846 41.8224 40.7846 42.091C40.7846 42.3597 40.8872 42.6173 41.0697 42.8073C41.2522 42.9973 41.4998 43.104 41.7579 43.104H53.4378C53.6959 43.104 53.9435 42.9973 54.126 42.8073C54.3085 42.6173 54.4111 42.3597 54.4111 42.091C54.4111 41.8224 54.3085 41.5647 54.126 41.3747C53.9435 41.1847 53.6959 41.078 53.4378 41.078H41.7579ZM47.6601 48.169C47.3097 47.4316 46.862 46.7508 46.3403 46.143H59.2777C59.5358 46.143 59.7834 46.2498 59.9659 46.4397C60.1484 46.6297 60.251 46.8874 60.251 47.156C60.251 47.4247 60.1484 47.6824 59.9659 47.8723C59.7834 48.0623 59.5358 48.169 59.2777 48.169H47.6601ZM48.5712 52.2211C48.5712 52.5634 48.5517 52.9018 48.5186 53.2341H55.3844C55.6425 53.2341 55.8901 53.1273 56.0726 52.9374C56.2552 52.7474 56.3577 52.4897 56.3577 52.2211C56.3577 51.9524 56.2552 51.6947 56.0726 51.5047C55.8901 51.3148 55.6425 51.208 55.3844 51.208H48.5186C48.5536 51.5403 48.5712 51.8787 48.5712 52.2211ZM36.8913 40.065V43.6227C36.2042 43.8758 35.5502 44.2175 34.9447 44.6397V40.065C34.9447 38.7217 35.4574 37.4334 36.3701 36.4835C37.2827 35.5336 38.5206 35 39.8113 35H61.2243C62.515 35 63.7529 35.5336 64.6655 36.4835C65.5782 37.4334 66.0909 38.7217 66.0909 40.065V54.2471C66.0909 55.5904 65.5782 56.8787 64.6655 57.8286C63.7529 58.7784 62.515 59.3121 61.2243 59.3121H50.7533L48.8067 57.2861H61.2243C61.9987 57.2861 62.7414 56.9659 63.289 56.396C63.8366 55.826 64.1443 55.0531 64.1443 54.2471V40.065C64.1443 39.259 63.8366 38.486 63.289 37.9161C62.7414 37.3462 61.9987 37.026 61.2243 37.026H39.8113C39.0369 37.026 38.2942 37.3462 37.7466 37.9161C37.199 38.486 36.8913 39.259 36.8913 40.065ZM39.8113 59.3121C41.3413 59.3121 42.7546 58.7853 43.8914 57.8999L48.8554 63.0663C48.9457 63.1604 49.053 63.2352 49.1712 63.2862C49.2893 63.3372 49.4159 63.3635 49.5438 63.3636C49.6717 63.3637 49.7983 63.3376 49.9165 63.2868C50.0347 63.2359 50.1421 63.1613 50.2326 63.0673C50.3231 62.9732 50.3949 62.8615 50.4439 62.7386C50.493 62.6157 50.5183 62.4839 50.5183 62.3508C50.5184 62.2177 50.4933 62.0859 50.4445 61.9629C50.3956 61.8398 50.324 61.7281 50.2336 61.6339L45.2697 56.4676C46.1885 55.1887 46.6657 53.6245 46.624 52.0282C46.5822 50.4319 46.024 48.897 45.0398 47.6721C44.0555 46.4471 42.7027 45.6037 41.2006 45.2786C39.6984 44.9534 38.1347 45.1655 36.7628 45.8805C35.3909 46.5954 34.2909 47.7714 33.6412 49.218C32.9914 50.6646 32.8298 52.2971 33.1825 53.8512C33.5352 55.4053 34.3816 56.79 35.5847 57.7811C36.7877 58.7722 38.277 59.3116 39.8113 59.3121ZM39.8113 57.2861C38.5206 57.2861 37.2827 56.7524 36.3701 55.8026C35.4574 54.8527 34.9447 53.5644 34.9447 52.2211C34.9447 50.8777 35.4574 49.5894 36.3701 48.6395C37.2827 47.6897 38.5206 47.156 39.8113 47.156C41.102 47.156 42.3398 47.6897 43.2525 48.6395C44.1652 49.5894 44.6779 50.8777 44.6779 52.2211C44.6779 53.5644 44.1652 54.8527 43.2525 55.8026C42.3398 56.7524 41.102 57.2861 39.8113 57.2861Z" fill="#A94ED3"/>
<rect width="30.3896" height="28.3636" rx="7" fill="#A94ED3"/>
<path d="M17.2248 9.36361V20.2727H15.2486V11.2866H15.1847L12.6332 12.9165V11.1054L15.3445 9.36361H17.2248Z" fill="white"/>
</svg>
