<svg width="86" height="85" viewBox="0 0 86 85" fill="none" xmlns="http://www.w3.org/2000/svg">
<rect x="15" y="14" width="70.9091" height="70.9091" rx="5" fill="#f6f6f6"/>
<rect width="30.3896" height="28.3636" rx="7" fill="#ABCA42"/>
<path d="M17.2248 9.36361V20.2727H15.2486V11.2866H15.1847L12.6332 12.9165V11.1054L15.3445 9.36361H17.2248Z" fill="white"/>
<mask id="path-4-inside-1_0_1" fill="white">
<path d="M49.75 50.875V52.75H42.25V50.875H41V52.75C41 53.4375 41.5625 54 42.25 54H49.75C50.4375 54 51 53.4375 51 52.75V50.875H49.75ZM49.125 48.375L48.2438 47.4938L46.625 49.1062V44H45.375V49.1062L43.7562 47.4938L42.875 48.375L46 51.5L49.125 48.375Z"/>
</mask>
<path d="M49.75 50.875V52.75H42.25V50.875H41V52.75C41 53.4375 41.5625 54 42.25 54H49.75C50.4375 54 51 53.4375 51 52.75V50.875H49.75ZM49.125 48.375L48.2438 47.4938L46.625 49.1062V44H45.375V49.1062L43.7562 47.4938L42.875 48.375L46 51.5L49.125 48.375Z" fill="#ABCA42"/>
<path d="M49.75 50.875V48.875H47.75V50.875H49.75ZM49.75 52.75V54.75H51.75V52.75H49.75ZM42.25 52.75H40.25V54.75H42.25V52.75ZM42.25 50.875H44.25V48.875H42.25V50.875ZM41 50.875V48.875H39V50.875H41ZM51 50.875H53V48.875H51V50.875ZM49.125 48.375L50.5392 49.7892L51.9534 48.375L50.5392 46.9608L49.125 48.375ZM48.2438 47.4938L49.658 46.0795L48.2465 44.6681L46.8323 46.0768L48.2438 47.4938ZM46.625 49.1062H44.625V53.9215L48.0365 50.5232L46.625 49.1062ZM46.625 44H48.625V42H46.625V44ZM45.375 44V42H43.375V44H45.375ZM45.375 49.1062L43.9635 50.5232L47.375 53.9215V49.1062H45.375ZM43.7562 47.4938L45.1677 46.0768L43.7535 44.6681L42.342 46.0795L43.7562 47.4938ZM42.875 48.375L41.4608 46.9608L40.0466 48.375L41.4608 49.7892L42.875 48.375ZM46 51.5L44.5858 52.9142L46 54.3284L47.4142 52.9142L46 51.5ZM47.75 50.875V52.75H51.75V50.875H47.75ZM49.75 50.75H42.25V54.75H49.75V50.75ZM44.25 52.75V50.875H40.25V52.75H44.25ZM42.25 48.875H41V52.875H42.25V48.875ZM39 50.875V52.75H43V50.875H39ZM39 52.75C39 54.5421 40.4579 56 42.25 56V52C42.6671 52 43 52.3329 43 52.75H39ZM42.25 56H49.75V52H42.25V56ZM49.75 56C51.5421 56 53 54.5421 53 52.75H49C49 52.3329 49.3329 52 49.75 52V56ZM53 52.75V50.875H49V52.75H53ZM51 48.875H49.75V52.875H51V48.875ZM50.5392 46.9608L49.658 46.0795L46.8295 48.908L47.7108 49.7892L50.5392 46.9608ZM46.8323 46.0768L45.2135 47.6893L48.0365 50.5232L49.6552 48.9107L46.8323 46.0768ZM48.625 49.1062V44H44.625V49.1062H48.625ZM46.625 42H45.375V46H46.625V42ZM43.375 44V49.1062H47.375V44H43.375ZM46.7865 47.6893L45.1677 46.0768L42.3448 48.9107L43.9635 50.5232L46.7865 47.6893ZM42.342 46.0795L41.4608 46.9608L44.2892 49.7892L45.1705 48.908L42.342 46.0795ZM41.4608 49.7892L44.5858 52.9142L47.4142 50.0858L44.2892 46.9608L41.4608 49.7892ZM47.4142 52.9142L50.5392 49.7892L47.7108 46.9608L44.5858 50.0858L47.4142 52.9142Z" fill="#ABCA42" mask="url(#path-4-inside-1_0_1)"/>
<path d="M62.5833 33H43.25C42.6091 33 41.9944 33.2593 41.5412 33.721C41.0879 34.1826 40.8333 34.8087 40.8333 35.4615V39.1538H38.4167C37.7757 39.1538 37.161 39.4132 36.7078 39.8748C36.2546 40.3364 36 40.9625 36 41.6154V56.3846C36 57.0375 36.2546 57.6636 36.7078 58.1252C37.161 58.5868 37.7757 58.8462 38.4167 58.8462H40.8333V62.5385C40.8333 63.1913 41.0879 63.8174 41.5412 64.279C41.9944 64.7407 42.6091 65 43.25 65H62.5833C63.2243 65 63.839 64.7407 64.2922 64.279C64.7454 63.8174 65 63.1913 65 62.5385V35.4615C65 34.8087 64.7454 34.1826 64.2922 33.721C63.839 33.2593 63.2243 33 62.5833 33ZM56.5417 45.3077H62.5833V52.6923H56.5417V45.3077ZM62.5833 42.8462H56.5417V41.6154C56.5417 40.9625 56.2871 40.3364 55.8338 39.8748C55.3806 39.4132 54.7659 39.1538 54.125 39.1538V35.4615H62.5833V42.8462ZM43.25 35.4615H51.7083V39.1538H43.25V35.4615ZM38.4167 41.6154H54.125V56.3846H38.4167V41.6154ZM43.25 58.8462H51.7083V62.5385H43.25V58.8462ZM54.125 62.5385V58.8462C54.7659 58.8462 55.3806 58.5868 55.8338 58.1252C56.2871 57.6636 56.5417 57.0375 56.5417 56.3846V55.1538H62.5833V62.5385H54.125Z" fill="#ABCA42"/>
</svg>
