<svg width="86" height="85" viewBox="0 0 86 85" fill="none" xmlns="http://www.w3.org/2000/svg">
<rect x="14.9091" y="14" width="70.9091" height="70.9091" rx="5" fill="#f6f6f6"/>
<rect width="30.3896" height="28.3636" rx="7" fill="#F15F61"/>
<path d="M12.3582 11.2727V9.3377H15.9732V20.2727H13.8132V11.2727H12.3582Z" fill="white"/>
<path d="M62.5 33H42.5C41.837 33 41.2011 33.2593 40.7322 33.721C40.2634 34.1826 40 34.8087 40 35.4615V39.1538H37.5C36.837 39.1538 36.2011 39.4132 35.7322 39.8748C35.2634 40.3364 35 40.9625 35 41.6154V56.3846C35 57.0375 35.2634 57.6636 35.7322 58.1252C36.2011 58.5868 36.837 58.8462 37.5 58.8462H40V62.5385C40 63.1913 40.2634 63.8174 40.7322 64.279C41.2011 64.7407 41.837 65 42.5 65H62.5C63.163 65 63.7989 64.7407 64.2678 64.279C64.7366 63.8174 65 63.1913 65 62.5385V35.4615C65 34.8087 64.7366 34.1826 64.2678 33.721C63.7989 33.2593 63.163 33 62.5 33ZM56.25 45.3077H62.5V52.6923H56.25V45.3077ZM62.5 42.8462H56.25V41.6154C56.25 40.9625 55.9866 40.3364 55.5178 39.8748C55.0489 39.4132 54.413 39.1538 53.75 39.1538V35.4615H62.5V42.8462ZM42.5 35.4615H51.25V39.1538H42.5V35.4615ZM37.5 41.6154H53.75V56.3846H37.5V41.6154ZM42.5 58.8462H51.25V62.5385H42.5V58.8462ZM53.75 62.5385V58.8462C54.413 58.8462 55.0489 58.5868 55.5178 58.1252C55.9866 57.6636 56.25 57.0375 56.25 56.3846V55.1538H62.5V62.5385H53.75Z" fill="#F15F61"/>
<path d="M50 50.3471H46.4353V54H44.5647V50.3471H41V48.6529H44.5647V45H46.4353V48.6529H50V50.3471Z" fill="#F15F61"/>
</svg>
