<svg width="189" height="59" viewBox="0 0 189 59" fill="none" xmlns="http://www.w3.org/2000/svg">
<path d="M8.91925 38.4842C6.32158 38.4842 4.18562 37.5879 2.51137 35.7999C0.837123 34.0074 0 31.7602 0 29.0581C0 26.356 0.832808 24.0953 2.50274 22.3252C4.17267 20.555 6.31295 19.6721 8.91925 19.6721C11.5255 19.6721 13.7003 20.555 15.3703 22.3162C17.0402 24.0775 17.873 26.3248 17.873 29.0581C17.873 31.7914 17.0359 34.0297 15.3616 35.8133C13.6874 37.5968 11.5385 38.4886 8.91925 38.4886V38.4842ZM8.91925 35.8846C10.8653 35.8846 12.4576 35.2426 13.6874 33.9629C14.9172 32.6787 15.5299 31.0467 15.5299 29.0625C15.5299 27.0783 14.9129 25.4642 13.6745 24.1711C12.4403 22.8825 10.8524 22.236 8.91493 22.236C6.97747 22.236 5.39384 22.8781 4.17267 24.1622C2.94719 25.4464 2.33445 27.0783 2.33445 29.0625C2.33445 31.0467 2.94719 32.6787 4.17267 33.9629C5.39815 35.247 6.97747 35.8846 8.91493 35.8846H8.91925Z" fill="#262261"/>
<path d="M21.9378 37.4457V22.1517H15.7845V19.6726H30.3781V22.1517H24.2075V37.4457H21.9335H21.9378Z" fill="#262261"/>
<path d="M32.6349 37.4457V19.6726H34.9262V34.8863H45.7613V37.4457H32.6392H32.6349Z" fill="#262261"/>
<path d="M46.3956 19.6771H48.6869V31.0606C48.6869 32.7684 49.0192 33.9187 49.6794 34.5162C50.3396 35.1137 51.6514 35.4125 53.6104 35.4125C55.5695 35.4125 56.8942 35.1137 57.5587 34.5162C58.2189 33.9187 58.5468 32.7684 58.5468 31.0606V19.6771H60.8209V31.7874C60.8209 33.9678 60.2556 35.5418 59.1207 36.5094C57.9859 37.4814 56.139 37.9674 53.5759 37.9674C51.0127 37.9674 49.1875 37.4859 48.0742 36.5317C46.9566 35.573 46.3999 33.9945 46.3999 31.7874V19.6771H46.3956Z" fill="#262261"/>
<path d="M62.8705 37.4056V19.6771H71.8416C73.3216 19.6771 74.4479 20.0472 75.2073 20.7918C75.9668 21.5364 76.3508 22.6244 76.3508 24.0691C76.3508 24.7914 76.23 25.429 75.9927 25.9953C75.7553 26.5571 75.4058 27.0119 74.9484 27.3553C75.7553 27.9126 76.3681 28.5859 76.778 29.3841C77.1879 30.1822 77.3951 31.0784 77.3951 32.0772C77.3951 33.727 76.942 35.029 76.0358 35.9788C75.1297 36.9285 73.8783 37.4011 72.286 37.4011H62.8705V37.4056ZM71.7725 22.2365H65.1575V26.4189H71.8071C72.5363 26.4189 73.0886 26.2405 73.4554 25.8883C73.8265 25.536 74.0121 25.0099 74.0121 24.3143C74.0121 23.6187 73.8265 23.1015 73.4554 22.7537C73.0843 22.4059 72.5234 22.232 71.7725 22.232V22.2365ZM72.5406 29.0184H65.1575V34.8462H72.5406C73.3389 34.8462 73.956 34.5876 74.3961 34.0748C74.8362 33.562 75.052 32.8397 75.052 31.9122C75.052 30.9848 74.8319 30.2848 74.3961 29.7809C73.956 29.277 73.3389 29.0229 72.5406 29.0229V29.0184Z" fill="#262261"/>
<path d="M80.0402 35.3233C80.4372 35.3233 80.7738 35.4571 81.0413 35.7246C81.3088 35.9921 81.4426 36.3399 81.4426 36.7635C81.4426 37.1648 81.3088 37.4992 81.0413 37.7623C80.7738 38.0254 80.4415 38.1592 80.0402 38.1592C79.6389 38.1592 79.2894 38.0254 79.0132 37.7623C78.7414 37.4992 78.6033 37.1648 78.6033 36.7635C78.6033 36.3622 78.7414 36.0055 79.0219 35.7335C79.3023 35.4615 79.6389 35.3233 80.0402 35.3233Z" fill="#262261"/>
<path d="M98.1678 33.5754C97.3393 35.1717 96.2476 36.389 94.897 37.2272C93.5464 38.0655 92.0102 38.4847 90.2928 38.4847C87.7297 38.4847 85.6196 37.6018 83.9626 35.8316C82.3056 34.0614 81.4771 31.8186 81.4771 29.0987C81.4771 26.3788 82.3056 24.127 83.9626 22.3435C85.6196 20.5599 87.7297 19.6682 90.2928 19.6682C91.8851 19.6682 93.3349 20.0293 94.6338 20.7606C95.9326 21.4874 96.9812 22.5174 97.7795 23.8506L95.9671 25.3934C95.363 24.3812 94.5691 23.6009 93.5852 23.0524C92.6014 22.504 91.5054 22.232 90.2971 22.232C88.4287 22.232 86.8796 22.8786 85.6584 24.1761C84.433 25.4736 83.8202 27.1011 83.8202 29.0541C83.8202 31.0071 84.4373 32.6346 85.6671 33.9321C86.8969 35.2297 88.4417 35.8762 90.2971 35.8762C91.596 35.8762 92.7395 35.5641 93.7319 34.9398C94.7201 34.3156 95.596 33.3436 96.3469 32.0282L98.1765 33.5665L98.1678 33.5754Z" fill="#262261"/>
<path d="M122.337 37.4457V19.6726H124.235L130.216 30.0797L136.197 19.6726H138.095V37.4457H135.825V24.671L130.22 34.5564L124.632 24.671V37.4457H122.341H122.337Z" fill="#262261"/>
<path d="M110.095 39.3229C107.38 39.3229 105.15 38.3866 103.402 36.5183C101.654 34.6455 100.778 32.3002 100.778 29.4777C100.778 26.6552 101.65 24.292 103.393 22.446C105.137 20.6001 107.372 19.6771 110.095 19.6771C112.817 19.6771 115.087 20.5956 116.83 22.4371C118.574 24.2786 119.445 26.624 119.445 29.4777C119.445 32.3314 118.569 34.6678 116.822 36.5317C115.074 38.3955 112.83 39.3229 110.095 39.3229ZM110.095 36.603C112.127 36.603 113.788 35.9342 115.074 34.5965C116.356 33.2544 116.999 31.5511 116.999 29.4777C116.999 27.4043 116.356 25.7189 115.061 24.3678C113.771 23.0212 112.114 22.3479 110.09 22.3479C108.067 22.3479 106.414 23.0212 105.137 24.3589C103.859 25.701 103.216 27.4043 103.216 29.4777C103.216 31.5511 103.859 33.2544 105.137 34.5965C106.414 35.9342 108.067 36.603 110.09 36.603H110.095Z" fill="#262261"/>
<path d="M157.125 55.7094L157.832 3.45567C157.858 1.59631 155.545 0.0446206 152.671 3.17479e-05C149.793 -0.049016 147.442 1.42242 147.416 3.28623L146.708 55.5399C146.682 57.3993 148.995 58.951 151.869 59C154.743 59.0491 157.094 57.5732 157.12 55.7138L157.125 55.7094Z" fill="#FFC012"/>
<path d="M188.534 45.6145L189 11.3925C189.026 9.52868 186.713 7.98145 183.839 7.93686C180.965 7.88781 178.614 9.35925 178.588 11.2231L178.122 45.445C178.096 47.3088 180.409 48.8561 183.283 48.9007C186.156 48.9497 188.508 47.4783 188.534 45.6145Z" fill="#EA1F27"/>
<path d="M172.391 50.2249L172.974 7.30369C173 5.43988 170.687 3.89264 167.813 3.84805C164.939 3.79901 162.587 5.27044 162.562 7.13425L161.979 50.0555C161.953 51.9193 164.262 53.4665 167.14 53.5156C170.014 53.5646 172.365 52.0932 172.391 50.2294V50.2249Z" fill="#F59120"/>
<g style="mix-blend-mode:multiply">
<path d="M157.043 56.2757L172.853 7.75404C173.362 5.9259 171.481 4.15126 168.654 3.79009C165.824 3.42892 163.118 4.61499 162.609 6.44313L146.794 54.9692C146.285 56.7973 148.166 58.572 150.997 58.9332C153.828 59.2943 156.533 58.1038 157.043 56.2757Z" fill="#FDCD07"/>
</g>
<g style="mix-blend-mode:multiply">
<path d="M172.314 50.7778L188.883 11.767C189.393 9.93889 187.511 8.16425 184.681 7.80308C181.85 7.44191 179.144 8.62798 178.635 10.4606L162.065 49.4669C161.556 51.2951 163.438 53.0697 166.264 53.4309C169.095 53.792 171.8 52.6015 172.314 50.7734V50.7778Z" fill="#F59120"/>
</g>
</svg>
