<svg width="64" height="30" viewBox="0 0 64 30" fill="none" xmlns="http://www.w3.org/2000/svg">
<path d="M11.6152 13.5926H21.9121C22.2862 13.5926 22.5713 13.0938 22.5713 12.4881C22.5713 11.8824 22.2684 11.3836 21.9121 11.3836H11.6152C11.2411 11.3836 10.9561 11.8824 10.9561 12.4881C10.9561 13.0938 11.2411 13.5926 11.6152 13.5926Z" fill="#FAD05E"/>
<path d="M13.7174 20.2197H20.4692C20.8433 20.2197 21.1283 19.7209 21.1283 19.1152C21.1283 18.5095 20.8255 18.0107 20.4692 18.0107H13.7174C13.3433 18.0107 13.0582 18.5095 13.0582 19.1152C13.0404 19.7387 13.3433 20.2197 13.7174 20.2197Z" fill="#E52628"/>
<path d="M12.7554 16.8171H21.2174C21.5915 16.8171 21.8765 16.3183 21.8765 15.7126C21.8765 15.1069 21.5737 14.6081 21.2174 14.6081H12.7554C12.3813 14.6081 12.0962 15.1069 12.0962 15.7126C12.0784 16.3183 12.3813 16.8171 12.7554 16.8171Z" fill="#FAD05E"/>
<path d="M11.5082 13.5749L21.1281 16.7815C21.4844 16.8884 21.8407 16.4787 21.8941 15.873C21.9476 15.2673 21.716 14.6972 21.3597 14.5903L11.7397 11.3837C11.3834 11.2768 11.0272 11.6865 10.9737 12.2922C10.9025 12.8979 11.134 13.468 11.5082 13.5749Z" fill="#FAD05E"/>
<path d="M12.6306 16.7994L20.38 20.202C20.7363 20.3089 21.0926 19.8991 21.1461 19.2934C21.1995 18.6877 20.9679 18.1177 20.5938 18.0108L12.8444 14.6081C12.4881 14.5013 12.1318 14.911 12.0784 15.5167C12.0249 16.1224 12.2743 16.6925 12.6306 16.7994Z" fill="#FAD05E"/>
<path d="M19.8634 23.1057C19.8634 23.7649 20.3978 24.3171 21.0748 24.3171C21.734 24.3171 22.2862 23.7827 22.2862 23.1057C22.2862 22.4288 21.7518 21.8943 21.0748 21.8943C20.4157 21.8943 19.8634 22.4288 19.8634 23.1057Z" fill="#4B484A"/>
<path d="M8.65801 14.4477C9.55334 14.4477 10.2791 13.7219 10.2791 12.8266C10.2791 11.9312 9.55334 11.2054 8.65801 11.2054C7.76268 11.2054 7.03687 11.9312 7.03687 12.8266C7.03687 13.7219 7.76268 14.4477 8.65801 14.4477Z" fill="white"/>
<path d="M12.0428 28.3966C12.0428 29.2518 12.7376 29.9643 13.6105 29.9643C14.4656 29.9643 15.1782 29.2696 15.1782 28.3966C15.1782 27.5415 14.4834 26.8289 13.6105 26.8289C12.7376 26.8289 12.0428 27.5415 12.0428 28.3966Z" fill="white"/>
<path d="M58.9668 14.8753C58.9134 14.4478 58.8065 14.0202 58.6818 13.5927C58.5392 13.1651 58.3611 12.7554 58.1117 12.3635C57.8088 11.8825 57.4704 11.4905 57.0784 11.2055C56.7043 10.9205 56.3124 10.6889 55.9027 10.5285C55.4929 10.3682 55.0832 10.2613 54.6734 10.2079C54.2637 10.1544 53.854 10.1366 53.462 10.1366H50.772C50.6473 10.1366 50.4692 10.1366 50.2198 10.1366C49.9704 10.1366 49.6853 10.1544 49.3825 10.1901C49.0618 10.2257 48.7233 10.2791 48.367 10.3504C48.0107 10.4217 47.6544 10.5285 47.2981 10.6711C46.9419 10.8136 46.6034 10.9917 46.2827 11.2055C45.962 11.4193 45.6948 11.6865 45.4632 11.9894L45.481 5.55823C45.481 5.54042 45.481 5.5226 45.481 5.50479C45.481 4.64968 44.7863 3.93709 43.9133 3.93709C43.0582 3.93709 42.3457 4.63186 42.3457 5.50479C42.3457 5.5226 42.3457 5.54042 42.3457 5.55823H42.3278V16.9597C42.3278 16.9597 42.221 18.759 42.7019 20.1485C43.1829 21.5381 43.7708 21.8943 43.7708 21.8943H40.1366H39.8694H39.7981C39.5131 21.8943 39.2103 21.8765 38.8896 21.8409C38.5689 21.8053 38.2661 21.734 37.981 21.6093C37.696 21.4846 37.4288 21.3243 37.215 21.0927C36.9834 20.8789 36.8231 20.5761 36.7162 20.2019L36.6449 18.2601V5.54042C36.6449 5.5226 36.6449 5.50479 36.6449 5.46916C36.6449 4.61405 35.9502 3.90146 35.0772 3.90146C34.2221 3.90146 33.5095 4.59624 33.5095 5.46916C33.5095 5.48697 33.5095 5.50479 33.5095 5.54042C33.5095 7.67819 33.5095 9.47747 33.5095 10.9561C33.5095 12.4347 33.5095 13.6461 33.5095 14.6081V16.8528V18.0286C33.5095 18.278 33.5095 18.4383 33.5095 18.4917C33.5095 18.5452 33.5095 18.5986 33.5095 18.6164C33.4917 19.0796 33.4561 19.5072 33.3848 19.9169C33.3136 20.3267 33.1532 20.7008 32.9217 21.0214C32.6901 21.3243 32.405 21.5381 32.0665 21.6806C31.7103 21.8053 31.2471 21.8765 30.6592 21.8765H30.3385V21.8943H30.2851C30 21.8943 29.6972 21.8765 29.3765 21.8409C29.0559 21.8053 28.753 21.734 28.468 21.6093C28.1829 21.4846 27.9157 21.3243 27.7019 21.0927C27.4703 20.8789 27.31 20.5761 27.2031 20.2019L27.1319 18.2601V10.0832C27.0962 9.24588 26.4193 8.56892 25.582 8.56892C24.7447 8.56892 24.0499 9.24588 24.0321 10.0832H24.0143C24.0143 11.4549 24.0143 12.6307 24.0143 13.5749C24.0143 14.5369 24.0143 15.3207 24.0143 15.9442V17.405V18.1711C24.0143 18.3314 24.0143 18.4383 24.0143 18.4917C24.0143 18.5452 24.0143 18.5808 24.0143 18.5808C24.0143 19.044 23.9608 19.4715 23.8896 19.8813C23.8183 20.291 23.658 20.6651 23.4264 20.9858C23.1948 21.2886 22.9098 21.5024 22.5713 21.6449C22.215 21.7696 21.7518 21.8409 21.1639 21.8409L14.0024 21.8587C13.5749 21.8587 13.2007 21.8409 12.8623 21.7875C12.5238 21.7518 12.2387 21.6806 11.9715 21.5737C11.7221 21.4668 11.4905 21.3421 11.3124 21.1818C11.1342 21.0214 10.9739 20.8255 10.8314 20.5939C10.5642 20.1663 10.4038 19.6675 10.3504 19.1153C10.2969 18.563 10.2791 17.9929 10.2791 17.3872L10.2969 13.1473C10.2969 13.1473 10.2791 11.6687 8.6758 11.6687C7.07247 11.6687 7.05466 13.1473 7.05466 13.1473V17.3872C7.05466 17.8326 7.07247 18.2958 7.09029 18.7411C7.1081 19.1865 7.16155 19.6319 7.2328 20.0594C7.30406 20.487 7.42877 20.8967 7.5891 21.2886C7.74943 21.6806 7.96321 22.0547 8.21261 22.411C8.55109 22.8742 8.9252 23.2304 9.31713 23.4977C9.70905 23.7471 10.1188 23.943 10.5107 24.0677C10.9026 24.1924 11.3124 24.2637 11.6865 24.2993C12.0784 24.3172 12.4347 24.335 12.7732 24.335L21.7874 24.3172C22.1616 24.3172 22.5 24.3172 22.8385 24.2993C23.177 24.2815 23.5155 24.2281 23.8361 24.1568C24.1568 24.0856 24.4775 23.9787 24.7625 23.8362C25.0654 23.6936 25.3504 23.4977 25.6354 23.2661C25.9026 23.5155 26.2055 23.7114 26.5083 23.854C26.8112 23.9965 27.1319 24.1034 27.4525 24.1746C27.7732 24.2459 28.0939 24.2993 28.4145 24.3172C28.7352 24.335 29.038 24.3528 29.3409 24.3528H30.6236V24.335H31.3005C31.6746 24.335 32.0131 24.335 32.3516 24.3172C32.6901 24.2993 33.0285 24.2459 33.3492 24.1746C33.6699 24.1034 33.9905 23.9965 34.2934 23.854C34.5962 23.7114 34.8813 23.5155 35.1663 23.2839C35.4335 23.5333 35.7186 23.7293 36.0392 23.8718C36.3421 24.0143 36.6628 24.1212 36.9834 24.1925C37.3041 24.2637 37.6247 24.3172 37.9454 24.335C38.2661 24.3528 38.5689 24.3706 38.8718 24.3706H39.8872H40.1544H53.3373C53.6758 24.3706 54.0499 24.3528 54.4419 24.335C54.8338 24.3172 55.2257 24.2281 55.6176 24.1034C56.0096 23.9787 56.4015 23.7827 56.7934 23.5333C57.1853 23.2839 57.5416 22.9098 57.8801 22.4466C58.1473 22.0725 58.3611 21.6984 58.5214 21.3065C58.6818 20.9145 58.7887 20.5226 58.8777 20.0951C58.949 19.6853 59.0024 19.2578 59.0202 18.8124C59.0381 18.367 59.0559 17.9217 59.0559 17.4407C59.0559 17.0487 59.0559 16.6212 59.0381 16.1936C59.0559 15.7304 59.0202 15.3029 58.9668 14.8753ZM55.778 19.1509C55.7245 19.7031 55.5642 20.2019 55.297 20.6473C55.1723 20.8789 55.0119 21.0749 54.816 21.2352C54.6378 21.3955 54.4062 21.5202 54.1568 21.6271C53.9074 21.734 53.6046 21.8053 53.2661 21.8409C52.9276 21.8765 52.5535 21.9122 52.1259 21.9122H47.9929C46.6568 21.6449 45.6236 20.5404 45.4454 19.1687V16.7815C45.6236 15.4454 46.0867 14.4122 46.835 13.6818C47.5832 12.9514 48.5808 12.5772 49.8278 12.5238H52.1972C52.411 12.5238 52.6604 12.5416 52.9276 12.5416C53.1948 12.5594 53.462 12.6129 53.7471 12.6841C54.0143 12.7554 54.2815 12.8801 54.5309 13.0226C54.7803 13.1651 55.0119 13.3789 55.1901 13.6461C55.4573 14.0202 55.6354 14.519 55.7423 15.1247C55.8314 15.7304 55.8849 16.4965 55.8849 17.405C55.8492 18.0107 55.8314 18.5986 55.778 19.1509ZM63.9727 22.7495C63.9727 23.6224 63.2602 24.3172 62.405 24.3172C61.5499 24.3172 60.8373 23.6224 60.8373 22.7495V5.55823H60.8552C60.8552 5.54042 60.8552 5.5226 60.8552 5.50479C60.8552 4.64968 61.5499 3.93709 62.4229 3.93709C63.278 3.93709 63.9906 4.63186 63.9906 5.50479C63.9906 5.5226 63.9906 5.54042 63.9906 5.55823H64.0084V22.7495H63.9727Z" fill="url(#paint0_radial_1_4)"/>
<path d="M30.6414 24.3171H31.3183C31.6925 24.3171 32.0309 24.3171 32.3694 24.2993C32.7079 24.2815 33.0464 24.2281 33.367 24.1568C33.6877 24.0855 34.0084 23.9787 34.3112 23.8361C34.6141 23.6936 34.8991 23.4977 35.1842 23.2661C35.4514 23.5155 35.7364 23.7114 36.0571 23.8539C36.3599 23.9965 36.6806 24.1034 37.0013 24.1746C37.3219 24.2459 37.6426 24.2993 37.9633 24.3171C38.2839 24.3349 38.5868 24.3528 38.8896 24.3528H39.9051H40.1723H53.3552C53.6937 24.3528 54.0678 24.3349 54.4597 24.3171C54.8516 24.2993 55.2435 24.2102 55.6355 24.0855C56.0274 23.9608 56.4193 23.7649 56.8112 23.5155C57.2032 23.2661 57.5595 22.8919 57.8979 22.4288C58.1652 22.0547 58.3789 21.6805 58.5393 21.2886C58.6996 20.8967 58.8065 20.5048 58.8956 20.0772C58.949 19.7566 59.0025 19.4181 59.0203 19.0796C57.9692 18.8836 56.9003 18.6877 55.8136 18.5095C55.7958 18.7411 55.7958 18.9549 55.7602 19.1687C55.7067 19.7209 55.5464 20.2197 55.2792 20.6651C55.1545 20.8967 54.9941 21.0927 54.7982 21.253C54.62 21.4133 54.3884 21.538 54.139 21.6449C53.8896 21.7518 53.5868 21.8231 53.2483 21.8587C52.9098 21.8943 52.5357 21.93 52.1082 21.93H47.9751C46.639 21.6627 45.6058 20.5582 45.4276 19.1865V17.1556C44.3944 17.0665 43.3611 16.9775 42.31 16.8884V16.9775C42.31 16.9775 42.2032 18.7767 42.6842 20.1663C43.1652 21.5558 43.753 21.9121 43.753 21.9121H40.1188H39.8516H39.7803C39.4953 21.9121 39.1925 21.8943 38.8718 21.8587C38.5511 21.8231 38.2483 21.7518 37.9633 21.6271C37.6782 21.5024 37.411 21.3421 37.1972 21.1105C36.9656 20.8967 36.8053 20.5938 36.6984 20.2197L36.6271 18.2779V16.5499C35.5939 16.5143 34.5428 16.4786 33.4918 16.443V16.8706V18.0463C33.4918 18.2957 33.4918 18.4561 33.4918 18.5095C33.4918 18.563 33.4918 18.6164 33.4918 18.6342C33.4739 19.0974 33.4383 19.525 33.367 19.9347C33.2958 20.3444 33.1355 20.7186 32.9039 21.0392C32.6723 21.3421 32.3872 21.5558 32.0488 21.6984C31.6925 21.8231 31.2293 21.8943 30.6414 21.8943H30.3207V21.9121H30.2851C30.0001 21.9121 29.6972 21.8943 29.3765 21.8587C29.0559 21.8231 28.753 21.7518 28.468 21.6271C28.183 21.5024 27.9157 21.3421 27.702 21.1105C27.4704 20.8967 27.31 20.5938 27.2031 20.2197L27.1319 18.2779V16.4252C26.0808 16.443 25.0297 16.4608 23.9965 16.4965V17.4406V18.2067C23.9965 18.367 23.9965 18.4739 23.9965 18.5273C23.9965 18.5808 23.9965 18.6164 23.9965 18.6164C23.9965 19.0796 23.9431 19.5072 23.8718 19.9169C23.8005 20.3266 23.6402 20.7007 23.4086 21.0214C23.177 21.3243 22.892 21.538 22.5535 21.6805C22.1972 21.8053 21.734 21.8765 21.1461 21.8765L13.9846 21.8943C13.5571 21.8943 13.183 21.8765 12.8445 21.8231C12.506 21.7874 12.221 21.7162 11.9537 21.6093C11.7043 21.5024 11.4727 21.3777 11.2946 21.2174C11.1164 21.057 10.9561 20.8611 10.8136 20.6295C10.5464 20.2019 10.386 19.7031 10.3326 19.1509C10.2791 18.6342 10.2613 18.0998 10.2613 17.5297C9.17463 17.6544 8.10575 17.7969 7.03687 17.9573C7.03687 18.2067 7.03687 18.4739 7.05468 18.7233C7.0725 19.1687 7.12594 19.614 7.1972 20.0416C7.26846 20.4691 7.39316 20.8789 7.55349 21.2708C7.71382 21.6627 7.9276 22.0368 8.17701 22.3931C8.51549 22.8563 8.8896 23.2126 9.28152 23.4798C9.67345 23.7292 10.0832 23.9252 10.4751 24.0499C10.867 24.1746 11.2768 24.2459 11.6509 24.2815C12.0428 24.2993 12.3991 24.3171 12.7376 24.3171L21.7518 24.2993C22.1259 24.2993 22.4644 24.2993 22.8029 24.2815C23.1414 24.2637 23.4799 24.2102 23.8005 24.139C24.1212 24.0677 24.4419 23.9608 24.7269 23.8183C25.0298 23.6758 25.3148 23.4798 25.5998 23.2482C25.867 23.4976 26.1699 23.6936 26.4727 23.8361C26.7756 23.9787 27.0963 24.0855 27.4169 24.1568C27.7376 24.2281 28.0583 24.2815 28.3789 24.2993C28.6996 24.3171 29.0024 24.3349 29.3053 24.3349L30.6414 24.3171Z" fill="#A5C840"/>
<path d="M63.9728 20.0951C62.9395 19.8635 61.8884 19.6319 60.8374 19.4181V22.7494C60.8374 23.6046 61.5321 24.3171 62.4051 24.3171C63.2602 24.3171 63.9728 23.6224 63.9728 22.7494V20.0951Z" fill="#A5C840"/>
<path d="M8.62233 13.8065C8.49762 13.8065 8.37292 13.7887 8.24822 13.753L1.01543 11.6153C0.302845 11.4015 -0.0890791 10.6711 0.124698 9.95849C0.338475 9.2459 1.06888 8.85398 1.78147 9.06775L9.01425 11.2055C9.72684 11.4193 10.1188 12.1497 9.90499 12.8623C9.72684 13.4324 9.21021 13.8065 8.62233 13.8065Z" fill="white"/>
<path d="M21.057 21.8943C20.9502 21.8943 21.2708 21.9121 21.1639 21.9121L14.0024 21.93C13.5749 21.93 13.2007 21.9121 12.8623 21.8587C12.5238 21.8231 12.2387 21.7518 11.9715 21.6449C11.7221 21.538 11.4905 21.4133 11.3124 21.253C11.1342 21.0927 10.9739 20.8967 10.8314 20.6651C10.5642 20.2376 10.4038 19.7387 10.3504 19.1865C10.2969 18.6342 10.2791 18.0642 10.2791 17.4585L10.2969 13.2186C10.2969 13.2186 10.2791 11.7399 8.6758 11.7399C7.07247 11.7399 7.05466 13.2186 7.05466 13.2186V17.3872C7.05466 17.8326 7.07247 18.2958 7.09029 18.7411C7.1081 19.1865 7.16155 19.6319 7.2328 20.0594C7.30406 20.487 7.42877 20.8967 7.5891 21.2886C7.74943 21.6806 7.96321 22.0547 8.21262 22.411C8.5511 22.8741 8.9252 23.2304 9.31713 23.4977C9.70905 23.7471 10.1188 23.943 10.5107 24.0677C10.9026 24.1924 11.3124 24.2637 11.6865 24.2993C12.0784 24.3171 12.4347 24.335 12.7732 24.335L21.057 24.3171V21.8943Z" fill="white"/>
<path d="M60.8374 28.3966C60.8374 29.2518 61.5321 29.9643 62.4051 29.9643C63.2602 29.9643 63.9728 29.2696 63.9728 28.3966C63.9728 27.5415 63.278 26.8289 62.4051 26.8289C61.55 26.8289 60.8374 27.5415 60.8374 28.3966Z" fill="#FAD05E"/>
<path d="M56.1521 28.3966C56.1521 29.2518 56.8469 29.9643 57.7198 29.9643C58.5749 29.9643 59.2875 29.2696 59.2875 28.3966C59.2875 27.5415 58.5927 26.8289 57.7198 26.8289C56.8647 26.8289 56.1521 27.5415 56.1521 28.3966Z" fill="#FAD05E"/>
<path d="M51.4668 28.3966C51.4668 29.2518 52.1616 29.9643 53.0345 29.9643C53.8897 29.9643 54.6022 29.2696 54.6022 28.3966C54.6022 27.5415 53.9075 26.8289 53.0345 26.8289C52.1794 26.8289 51.4668 27.5415 51.4668 28.3966Z" fill="#E52628"/>
<path d="M61.5677 27.0784C61.5856 27.9156 62.2803 28.5926 63.1176 28.5926C63.4205 28.5926 63.7055 28.5035 63.9549 28.3432C63.9371 27.5059 63.2423 26.8289 62.405 26.8289C62.1022 26.8289 61.8172 26.918 61.5677 27.0784Z" fill="#FAD05E"/>
<path d="M56.8825 27.0784C56.9003 27.9156 57.5951 28.5926 58.4324 28.5926C58.7352 28.5926 59.0202 28.5035 59.2697 28.3432C59.2518 27.5059 58.5571 26.8289 57.7198 26.8289C57.4169 26.8289 57.1319 26.918 56.8825 27.0784Z" fill="#FAD05E"/>
<path d="M52.1971 27.0784C52.215 27.9156 52.9097 28.5926 53.747 28.5926C54.0499 28.5926 54.3349 28.5035 54.5843 28.3432C54.5665 27.5059 53.8717 26.8289 53.0344 26.8289C52.7316 26.8289 52.4465 26.918 52.1971 27.0784Z" fill="#E94830"/>
<path d="M2.74347 10.3147C2.74347 11.0808 2.11995 11.6865 1.37173 11.6865C0.623515 11.6865 0 11.0629 0 10.3147C0 9.54869 0.623515 8.94299 1.37173 8.94299C2.11995 8.94299 2.74347 9.56651 2.74347 10.3147Z" fill="#A5C840"/>
<path d="M63.8124 2.22684C63.8124 2.47625 63.7589 2.65439 63.652 2.74347C63.5452 2.85036 63.3492 2.93943 63.0642 3.02851C62.7791 3.13539 62.5119 3.24229 62.2803 3.34917C62.0487 3.45606 61.8349 3.54513 61.6568 3.63421C61.4787 3.72328 61.3361 3.79454 61.2292 3.84798C61.1224 3.90143 61.0689 3.93706 61.0511 3.93706C61.0155 3.93706 60.9977 3.90143 60.9977 3.81235C60.9977 3.66983 61.0155 3.49169 61.0689 3.29573C61.1045 3.08195 61.158 2.95725 61.2292 2.90381C61.2827 2.86818 61.3361 2.83255 61.3896 2.79692C61.443 2.76129 61.5499 2.70784 61.6924 2.65439C61.5855 2.58314 61.4786 2.47625 61.3718 2.33373C61.2827 2.20903 61.2292 2.03088 61.2292 1.83492C61.2292 1.60333 61.2827 1.38955 61.3896 1.15796C61.4965 0.944181 61.6212 0.748221 61.7815 0.570074C61.9418 0.409741 62.1378 0.26722 62.3338 0.160332C62.5475 0.0534431 62.7613 0 62.9573 0C63.0998 0 63.2245 0.0356295 63.3136 0.0890737C63.4026 0.142518 63.4561 0.267221 63.4561 0.445368C63.4561 0.570072 63.4383 0.712593 63.4205 0.855111C63.3848 0.997629 63.3492 1.06888 63.3136 1.06888C63.2601 1.06888 63.1889 1.05107 63.0998 1.01544C63.0107 0.979813 62.8682 0.961995 62.6901 0.961995C62.5297 0.961995 62.3694 1.01544 62.2091 1.12233C62.0487 1.22922 61.9596 1.38955 61.9596 1.60333C61.9596 1.78147 62.0309 1.92399 62.1734 1.99525C62.3159 2.08433 62.4763 2.11995 62.6722 2.11995C62.8148 2.11995 62.9395 2.10214 63.0463 2.06651C63.1532 2.03088 63.2601 1.99525 63.3314 1.95962C63.4205 1.92399 63.4917 1.87055 63.5452 1.85273C63.5986 1.8171 63.652 1.79929 63.6877 1.79929C63.7411 1.79929 63.7589 1.83492 63.7768 1.92399C63.8124 2.03088 63.8124 2.11995 63.8124 2.22684Z" fill="url(#paint1_radial_1_4)"/>
<path d="M19.151 28.5571C19.151 27.7198 19.7745 27.1319 20.6118 27.1319C21.4491 27.1319 22.0548 27.7198 22.0548 28.5571C22.0548 29.3944 21.4491 29.9823 20.6118 29.9823C19.7745 29.9823 19.151 29.3944 19.151 28.5571ZM21.5381 28.5571C21.5381 27.9692 21.1462 27.5773 20.594 27.5773C20.0595 27.5773 19.6498 27.9692 19.6498 28.5571C19.6498 29.145 20.0595 29.5369 20.594 29.5369C21.1462 29.5369 21.5381 29.1628 21.5381 28.5571Z" fill="white"/>
<path d="M24.5844 29.7862C24.4241 29.9109 24.1925 29.9822 23.9787 29.9822C23.4086 29.9822 23.088 29.6793 23.088 29.1092V27.5772H22.607V27.1674H23.088V26.5617H23.5868V27.1674H24.3884V27.5772H23.5868V29.0914C23.5868 29.3943 23.7471 29.5546 24.0321 29.5546C24.1747 29.5546 24.3172 29.5012 24.4241 29.4299L24.5844 29.7862Z" fill="white"/>
<path d="M25.4573 26.0452H25.9561V29.9466H25.4573V26.0452Z" fill="white"/>
<path d="M29.7863 27.1675V29.9644H29.3053V29.5368C29.0915 29.8219 28.753 29.9822 28.3611 29.9822C27.6307 29.9822 27.1675 29.5903 27.1675 28.7708V27.1675H27.6663V28.7174C27.6663 29.2696 27.9335 29.5368 28.4145 29.5368C28.949 29.5368 29.2696 29.2162 29.2696 28.6105V27.1675H29.7863Z" fill="white"/>
<path d="M33.9192 28.557C33.9192 29.4122 33.3313 29.9822 32.5119 29.9822C32.1021 29.9822 31.7458 29.8219 31.5142 29.5012V29.9466H31.0332V26.0452H31.5321V27.5772C31.7637 27.2744 32.1199 27.1319 32.5119 27.1319C33.3135 27.1319 33.9192 27.7019 33.9192 28.557ZM33.4026 28.557C33.4026 27.9692 32.9929 27.5772 32.4584 27.5772C31.924 27.5772 31.5142 27.9692 31.5142 28.557C31.5142 29.1449 31.924 29.5369 32.4584 29.5369C32.9929 29.5369 33.4026 29.1627 33.4026 28.557Z" fill="white"/>
<path d="M34.5785 29.6259C34.5785 29.4122 34.7388 29.2697 34.9348 29.2697C35.1307 29.2697 35.2911 29.4122 35.2911 29.6259C35.2911 29.8397 35.1307 29.9822 34.9348 29.9822C34.7388 29.9822 34.5785 29.8397 34.5785 29.6259Z" fill="white"/>
<path d="M35.9502 28.5571C35.9502 27.7198 36.5737 27.1319 37.4288 27.1319C37.9276 27.1319 38.3374 27.3457 38.569 27.7198L38.1771 27.9692C37.9989 27.702 37.7317 27.5773 37.411 27.5773C36.8588 27.5773 36.449 27.9692 36.449 28.5571C36.449 29.1628 36.8588 29.5369 37.411 29.5369C37.7139 29.5369 37.9989 29.4122 38.1771 29.145L38.569 29.3944C38.3552 29.7863 37.9276 30.0001 37.4288 30.0001C36.5737 29.9823 35.9502 29.3944 35.9502 28.5571Z" fill="white"/>
<path d="M39.1747 28.5571C39.1747 27.7198 39.7982 27.1319 40.6355 27.1319C41.4728 27.1319 42.0785 27.7198 42.0785 28.5571C42.0785 29.3944 41.4728 29.9823 40.6355 29.9823C39.7982 29.9823 39.1747 29.3944 39.1747 28.5571ZM41.5619 28.5571C41.5619 27.9692 41.1699 27.5773 40.6177 27.5773C40.0654 27.5773 39.6735 27.9692 39.6735 28.5571C39.6735 29.145 40.0833 29.5369 40.6177 29.5369C41.1521 29.5369 41.5619 29.1628 41.5619 28.5571Z" fill="white"/>
<path d="M47.6723 28.3432V29.9465H47.1735V28.3966C47.1735 27.8444 46.9063 27.5772 46.4609 27.5772C45.9621 27.5772 45.6236 27.8978 45.6236 28.5035V29.9465H45.1248V28.3966C45.1248 27.8444 44.8576 27.5772 44.3944 27.5772C43.8956 27.5772 43.5571 27.8978 43.5571 28.5035V29.9465H43.0583V27.1496H43.5393V27.5594C43.7353 27.2743 44.0737 27.114 44.5013 27.114C44.9288 27.114 45.2851 27.2743 45.4633 27.6306C45.6771 27.3099 46.069 27.114 46.5322 27.114C47.2091 27.1318 47.6723 27.5237 47.6723 28.3432Z" fill="white"/>
<defs>
<radialGradient id="paint0_radial_1_4" cx="0" cy="0" r="1" gradientUnits="userSpaceOnUse" gradientTransform="translate(35.5083 14.1381) scale(21.3786 21.3786)">
<stop offset="0.00083705" stop-color="#A5C840"/>
<stop offset="0.2258" stop-color="#AACA41"/>
<stop offset="0.3602" stop-color="#B0CC44"/>
<stop offset="0.76" stop-color="#ABCA42"/>
<stop offset="0.999" stop-color="#A5C840"/>
</radialGradient>
<radialGradient id="paint1_radial_1_4" cx="0" cy="0" r="1" gradientUnits="userSpaceOnUse" gradientTransform="translate(62.4063 1.98203) scale(1.71109 1.71109)">
<stop offset="0.00083705" stop-color="#A5C840"/>
<stop offset="0.2258" stop-color="#AACA41"/>
<stop offset="0.3602" stop-color="#B0CC44"/>
<stop offset="0.76" stop-color="#ABCA42"/>
<stop offset="0.999" stop-color="#A5C840"/>
</radialGradient>
</defs>
</svg>
