<svg xmlns="http://www.w3.org/2000/svg" xmlns:xlink="http://www.w3.org/1999/xlink">
    <defs>
        <svg id="chat" width="17" height="17" viewBox="0 0 17 17" fill="currentColor" xmlns="http://www.w3.org/2000/svg">
            <path d="M5.11675 7.64966C4.94887 7.64966 4.78476 7.69951 4.64518 7.79291C4.50559 7.8863 4.3968 8.01905 4.33255 8.17436C4.26831 8.32967 4.2515 8.50057 4.28425 8.66544C4.317 8.83032 4.39785 8.98177 4.51655 9.10064C4.63526 9.21951 4.7865 9.30046 4.95115 9.33325C5.11581 9.36605 5.28647 9.34922 5.44157 9.28489C5.59667 9.22056 5.72923 9.11161 5.8225 8.97184C5.91577 8.83206 5.96555 8.66773 5.96555 8.49962C5.96555 8.2742 5.87612 8.05801 5.71694 7.89861C5.55776 7.73921 5.34186 7.64966 5.11675 7.64966ZM8.51196 7.64966C8.34408 7.64966 8.17998 7.69951 8.04039 7.79291C7.90081 7.8863 7.79201 8.01905 7.72777 8.17436C7.66353 8.32967 7.64672 8.50057 7.67947 8.66544C7.71222 8.83032 7.79306 8.98177 7.91177 9.10064C8.03048 9.21951 8.18172 9.30046 8.34637 9.33325C8.51102 9.36605 8.68169 9.34922 8.83679 9.28489C8.99188 9.22056 9.12445 9.11161 9.21772 8.97184C9.31098 8.83206 9.36077 8.66773 9.36077 8.49962C9.36077 8.2742 9.27134 8.05801 9.11216 7.89861C8.95298 7.73921 8.73708 7.64966 8.51196 7.64966ZM11.9072 7.64966C11.7393 7.64966 11.5752 7.69951 11.4356 7.79291C11.296 7.8863 11.1872 8.01905 11.123 8.17436C11.0587 8.32967 11.0419 8.50057 11.0747 8.66544C11.1074 8.83032 11.1883 8.98177 11.307 9.10064C11.4257 9.21951 11.5769 9.30046 11.7416 9.33325C11.9062 9.36605 12.0769 9.34922 12.232 9.28489C12.3871 9.22056 12.5197 9.11161 12.6129 8.97184C12.7062 8.83206 12.756 8.66773 12.756 8.49962C12.756 8.2742 12.6666 8.05801 12.5074 7.89861C12.3482 7.73921 12.1323 7.64966 11.9072 7.64966ZM8.51196 0C7.3973 0 6.29355 0.219849 5.26373 0.646995C4.23391 1.07414 3.2982 1.70022 2.51001 2.48948C0.918197 4.08347 0.0239247 6.24538 0.0239247 8.49962C0.0165043 10.4623 0.695152 12.3657 1.94222 13.8799L0.244614 15.5798C0.126836 15.6993 0.0470513 15.8511 0.015328 16.016C-0.0163953 16.1809 0.00136394 16.3515 0.0663648 16.5063C0.136865 16.6592 0.251153 16.7877 0.394722 16.8755C0.538291 16.9633 0.704666 17.0063 0.872728 16.9992H8.51196C10.7631 16.9992 12.9221 16.1038 14.5139 14.5098C16.1057 12.9158 17 10.7539 17 8.49962C17 6.24538 16.1057 4.08347 14.5139 2.48948C12.9221 0.895494 10.7631 0 8.51196 0ZM8.51196 15.2993H2.91835L3.70773 14.5089C3.78794 14.4301 3.85174 14.3363 3.89545 14.2327C3.93916 14.1291 3.96191 14.0178 3.96237 13.9054C3.95918 13.6812 3.86766 13.4673 3.70773 13.3104C2.5963 12.1987 1.90417 10.7355 1.74928 9.17007C1.59439 7.60466 1.98631 6.03389 2.85827 4.72538C3.73024 3.41688 5.02829 2.4516 6.53129 1.99399C8.03429 1.53638 9.64924 1.61476 11.101 2.21578C12.5528 2.81679 13.7515 3.90326 14.493 5.29007C15.2345 6.67689 15.4729 8.27825 15.1675 9.82132C14.8622 11.3644 14.032 12.7537 12.8184 13.7526C11.6048 14.7515 10.0829 15.2981 8.51196 15.2993Z" fill="currentColor"/>
        </svg>

        <svg id="marketplace" width="16" height="17" viewBox="0 0 16 17" fill="none" xmlns="http://www.w3.org/2000/svg">
            <path d="M15.9944 4.94848C15.9982 4.89473 15.9982 4.84075 15.9944 4.787L14.3949 0.53752C14.3325 0.369543 14.2213 0.227084 14.0775 0.130807C13.9337 0.0345301 13.7648 -0.0105573 13.5952 0.00208513H2.39916C2.23899 0.00192035 2.08247 0.0528704 1.94986 0.148336C1.81726 0.243801 1.71468 0.379383 1.65542 0.53752L0.0559803 4.787C0.0521254 4.84075 0.0521254 4.89473 0.0559803 4.94848C0.0294063 4.99579 0.010484 5.0475 0 5.10146C0.00890134 5.68894 0.160924 6.26395 0.441241 6.77038C0.721557 7.27682 1.1206 7.6974 1.59944 7.99111V16.1501C1.59944 16.3755 1.68369 16.5917 1.83367 16.7511C1.98365 16.9105 2.18706 17 2.39916 17H13.5952C13.8073 17 14.0107 16.9105 14.1607 16.7511C14.3107 16.5917 14.3949 16.3755 14.3949 16.1501V8.0251C14.8784 7.72847 15.2804 7.30254 15.561 6.78964C15.8416 6.27674 15.991 5.69473 15.9944 5.10146C16.0019 5.05078 16.0019 4.99916 15.9944 4.94848ZM8.79691 15.3002H7.19747V11.9006H8.79691V15.3002ZM12.7955 15.3002H10.3963V11.0507C10.3963 10.8253 10.3121 10.6091 10.1621 10.4498C10.0121 10.2904 9.80873 10.2008 9.59663 10.2008H6.39775C6.18565 10.2008 5.98224 10.2904 5.83227 10.4498C5.68229 10.6091 5.59803 10.8253 5.59803 11.0507V15.3002H3.19888V8.50104C3.65429 8.49831 4.10391 8.39227 4.51765 8.19C4.9314 7.98774 5.29974 7.69392 5.59803 7.32819C5.89822 7.68993 6.2674 7.97964 6.68105 8.17808C7.0947 8.37653 7.54335 8.47916 7.99719 8.47916C8.45103 8.47916 8.89968 8.37653 9.31333 8.17808C9.72698 7.97964 10.0962 7.68993 10.3963 7.32819C10.6946 7.69392 11.063 7.98774 11.4767 8.19C11.8905 8.39227 12.3401 8.49831 12.7955 8.50104V15.3002ZM12.7955 6.80125C12.3713 6.80125 11.9645 6.62217 11.6645 6.30339C11.3646 5.98462 11.1961 5.55227 11.1961 5.10146C11.1961 4.87605 11.1118 4.65988 10.9618 4.50049C10.8119 4.34111 10.6084 4.25156 10.3963 4.25156C10.1842 4.25156 9.98084 4.34111 9.83086 4.50049C9.68089 4.65988 9.59663 4.87605 9.59663 5.10146C9.59663 5.55227 9.42812 5.98462 9.12816 6.30339C8.82821 6.62217 8.42139 6.80125 7.99719 6.80125C7.57299 6.80125 7.16617 6.62217 6.86622 6.30339C6.56626 5.98462 6.39775 5.55227 6.39775 5.10146C6.39775 4.87605 6.3135 4.65988 6.16352 4.50049C6.01354 4.34111 5.81013 4.25156 5.59803 4.25156C5.38593 4.25156 5.18252 4.34111 5.03255 4.50049C4.88257 4.65988 4.79831 4.87605 4.79831 5.10146C4.80619 5.32468 4.77262 5.54736 4.69952 5.75679C4.62642 5.96623 4.51521 6.1583 4.37226 6.32206C4.22931 6.48582 4.05741 6.61806 3.86637 6.71121C3.67533 6.80437 3.4689 6.85662 3.25886 6.86499C2.83466 6.8819 2.42152 6.71903 2.11031 6.41221C1.95622 6.26029 1.8318 6.0776 1.74414 5.87457C1.65648 5.67155 1.60731 5.45216 1.59944 5.22894L2.94297 1.70188H13.0514L14.3949 5.22894C14.3646 5.65731 14.1828 6.05758 13.8861 6.34928C13.5894 6.64098 13.1997 6.80246 12.7955 6.80125Z" fill="currentColor"/>
        </svg>

        <svg id="bell" width="14" height="18" viewBox="0 0 14 18" fill="none" xmlns="http://www.w3.org/2000/svg">
            <path d="M12.3071 10.2014V7.37397C12.3058 6.11418 11.8795 4.89548 11.1037 3.93371C10.3278 2.97194 9.25239 2.32915 8.06793 2.11919V1.15003C8.06793 0.914216 7.97861 0.688061 7.81961 0.521316C7.66061 0.354571 7.44496 0.260895 7.2201 0.260895C6.99525 0.260895 6.7796 0.354571 6.6206 0.521316C6.4616 0.688061 6.37228 0.914216 6.37228 1.15003V2.11919C5.18782 2.32915 4.11242 2.97194 3.33654 3.93371C2.56066 4.89548 2.13437 6.11418 2.13315 7.37397V10.2014C1.6384 10.3849 1.20987 10.7243 0.906295 11.1732C0.602723 11.6221 0.438975 12.1585 0.4375 12.7088V14.487C0.4375 14.7229 0.526824 14.949 0.685823 15.1158C0.844821 15.2825 1.06047 15.3762 1.28533 15.3762H3.9475C4.14274 16.1296 4.56896 16.7947 5.16039 17.2689C5.75183 17.7431 6.47563 18 7.2201 18C7.96458 18 8.68838 17.7431 9.27981 17.2689C9.87125 16.7947 10.2975 16.1296 10.4927 15.3762H13.1549C13.3797 15.3762 13.5954 15.2825 13.7544 15.1158C13.9134 14.949 14.0027 14.7229 14.0027 14.487V12.7088C14.0012 12.1585 13.8375 11.6221 13.5339 11.1732C13.2303 10.7243 12.8018 10.3849 12.3071 10.2014ZM3.8288 7.37397C3.8288 6.43072 4.1861 5.5261 4.82209 4.85912C5.45808 4.19214 6.32067 3.81743 7.2201 3.81743C8.11953 3.81743 8.98212 4.19214 9.61812 4.85912C10.2541 5.5261 10.6114 6.43072 10.6114 7.37397V10.0414H3.8288V7.37397ZM7.2201 16.2653C6.92419 16.2634 6.63389 16.1804 6.37807 16.0244C6.12225 15.8684 5.9098 15.6449 5.76184 15.3762H8.67836C8.53041 15.6449 8.31796 15.8684 8.06214 16.0244C7.80631 16.1804 7.51602 16.2634 7.2201 16.2653ZM12.3071 13.5979H2.13315V12.7088C2.13315 12.473 2.22248 12.2468 2.38147 12.0801C2.54047 11.9133 2.75612 11.8196 2.98098 11.8196H11.4592C11.6841 11.8196 11.8997 11.9133 12.0587 12.0801C12.2177 12.2468 12.3071 12.473 12.3071 12.7088V13.5979Z" fill="currentColor"/>
        </svg>

        <svg id="user" xmlns="http://www.w3.org/2000/svg" fill="none" viewBox="0 0 24 24" stroke-width="1.5" stroke="currentColor">
            <path stroke-linecap="round" stroke-linejoin="round" d="M15.75 6a3.75 3.75 0 1 1-7.5 0 3.75 3.75 0 0 1 7.5 0ZM4.501 20.118a7.5 7.5 0 0 1 14.998 0A17.933 17.933 0 0 1 12 21.75c-2.676 0-5.216-.584-7.499-1.632Z" />
        </svg>


        <svg id="language" xmlns="http://www.w3.org/2000/svg" fill="none" viewBox="0 0 24 24" stroke-width="1.5" stroke="currentColor">
            <path stroke-linecap="round" stroke-linejoin="round" d="m10.5 21 5.25-11.25L21 21m-9-3h7.5M3 5.621a48.474 48.474 0 0 1 6-.371m0 0c1.12 0 2.233.038 3.334.114M9 5.25V3m3.334 2.364C11.176 10.658 7.69 15.08 3 17.502m9.334-12.138c.896.061 1.785.147 2.666.257m-4.589 8.495a18.023 18.023 0 0 1-3.827-5.802" />
        </svg>

        <svg id="menu" xmlns="http://www.w3.org/2000/svg" fill="none" viewBox="0 0 24 24" stroke-width="1.5" stroke="currentColor">
            <path stroke-linecap="round" stroke-linejoin="round" d="M3.75 6.75h16.5M3.75 12h16.5m-16.5 5.25h16.5" />
        </svg>

        <svg id="plus-circle" width="19" height="19" viewBox="0 0 19 19" fill="none" xmlns="http://www.w3.org/2000/svg">
            <path d="M9.5 18C14.1944 18 18 14.1944 18 9.5C18 4.80558 14.1944 1 9.5 1C4.80558 1 1 4.80558 1 9.5C1 14.1944 4.80558 18 9.5 18Z" stroke="currentColor" stroke-width="2" stroke-linecap="round" stroke-linejoin="round"/>
            <path d="M9.5 6.10004V12.9" stroke="currentColor" stroke-width="2" stroke-linecap="round" stroke-linejoin="round"/>
            <path d="M6.09998 9.5H12.9" stroke="currentColor" stroke-width="2" stroke-linecap="round" stroke-linejoin="round"/>
        </svg>

        <svg id="academy-cap" width="23" height="19" viewBox="0 0 23 19" fill="none" xmlns="http://www.w3.org/2000/svg">
            <path d="M11.5 0L0 6.33333L4.18182 8.63445V14.9678L11.5 19L18.8182 14.9678V8.63445L20.9091 7.48389V14.7778H23V6.33333L11.5 0ZM18.63 6.33333L11.5 10.26L4.37 6.33333L11.5 2.40667L18.63 6.33333ZM16.7273 13.7222L11.5 16.5933L6.27273 13.7222V9.785L11.5 12.6667L16.7273 9.785V13.7222Z" fill="currentColor"/>
        </svg>

        <svg id="code-icon" width="12" height="12" viewBox="0 0 12 12" fill="none" xmlns="http://www.w3.org/2000/svg">
            <rect x="0.5" y="0.5" width="9" height="8" rx="1.5" stroke="currentColor"/>
            <rect x="2.5" y="2.5" width="9" height="9" rx="1.5" fill="currentColor" stroke="currentColor"/>
        </svg>

        <svg id="edit" xmlns="http://www.w3.org/2000/svg" fill="none" viewBox="0 0 24 24" stroke-width="1.5" stroke="currentColor">
            <path stroke-linecap="round" stroke-linejoin="round" d="m16.862 4.487 1.687-1.688a1.875 1.875 0 1 1 2.652 2.652L10.582 16.07a4.5 4.5 0 0 1-1.897 1.13L6 18l.8-2.685a4.5 4.5 0 0 1 1.13-1.897l8.932-8.931Zm0 0L19.5 7.125M18 14v4.75A2.25 2.25 0 0 1 15.75 21H5.25A2.25 2.25 0 0 1 3 18.75V8.25A2.25 2.25 0 0 1 5.25 6H10" />
        </svg>

        <svg id="tooltip" width="11" height="11" viewBox="0 0 11 11" fill="none" xmlns="http://www.w3.org/2000/svg">
            <path d="M5.5 10C7.98528 10 10 7.98528 10 5.5C10 3.01472 7.98528 1 5.5 1C3.01472 1 1 3.01472 1 5.5C1 7.98528 3.01472 10 5.5 10Z" stroke="currentColor" stroke-width="0.5" stroke-linecap="round" stroke-linejoin="round"/>
            <path d="M5.5 2.5L5.5 6.25" stroke="currentColor" stroke-width="0.5" stroke-linecap="round" stroke-linejoin="round"/>
            <path d="M6 7.5C6 7.77614 5.77614 8 5.5 8C5.22386 8 5 7.77614 5 7.5C5 7.22386 5.22386 7 5.5 7C5.77614 7 6 7.22386 6 7.5Z" fill="currentColor"/>
        </svg>

        <svg id="more-info" width="16" height="16" viewBox="0 0 16 16" fill="none" xmlns="http://www.w3.org/2000/svg">
            <g clip-path="url(#clip0_1_1178)">
            <path d="M2 0C1.46957 0 0.960859 0.210714 0.585786 0.585786C0.210714 0.960859 0 1.46957 0 2L0 14C0 14.5304 0.210714 15.0391 0.585786 15.4142C0.960859 15.7893 1.46957 16 2 16H14C14.5304 16 15.0391 15.7893 15.4142 15.4142C15.7893 15.0391 16 14.5304 16 14V2C16 1.46957 15.7893 0.960859 15.4142 0.585786C15.0391 0.210714 14.5304 0 14 0L2 0ZM5.496 6.033C5.46377 6.03344 5.43178 6.02729 5.402 6.01494C5.37222 6.00259 5.34528 5.9843 5.32281 5.96118C5.30035 5.93806 5.28284 5.9106 5.27135 5.88048C5.25986 5.85036 5.25464 5.81821 5.256 5.786C5.35 4.091 6.737 3.5 8.005 3.5C9.401 3.5 10.677 4.23 10.677 5.74C10.677 6.82 10.042 7.334 9.433 7.797C8.696 8.356 8.423 8.565 8.423 9.283V9.388C8.423 9.4543 8.39666 9.51789 8.34978 9.56478C8.30289 9.61166 8.2393 9.638 8.173 9.638H7.363C7.29738 9.63801 7.23439 9.61222 7.18762 9.5662C7.14085 9.52017 7.11405 9.45761 7.113 9.392L7.109 9.175C7.071 8.248 7.604 7.677 8.277 7.188C8.867 6.744 9.242 6.452 9.242 5.817C9.242 4.992 8.614 4.649 7.928 4.649C7.125 4.649 6.675 5.127 6.586 5.783C6.568 5.92 6.458 6.033 6.32 6.033H5.495H5.496ZM7.821 12.476C7.237 12.476 6.812 12.082 6.812 11.549C6.812 10.997 7.237 10.609 7.822 10.609C8.431 10.609 8.85 10.997 8.85 11.549C8.85 12.082 8.43 12.476 7.821 12.476Z" fill="currentColor"/>
            </g>
            <defs>
            <clipPath id="clip0_1_1178">
            <rect width="16" height="16" fill="white"/>
            </clipPath>
            </defs>
        </svg>

        <svg id="exclamation-square" width="25" height="24" viewBox="0 0 25 24" fill="none" xmlns="http://www.w3.org/2000/svg">
            <path d="M3.88136 0C3.09245 0 2.33586 0.316071 1.77802 0.87868C1.22018 1.44129 0.906784 2.20435 0.906784 3L0.906784 21C0.906784 21.7956 1.22018 22.5587 1.77802 23.1213C2.33586 23.6839 3.09245 24 3.88136 24H21.7288C22.5177 24 23.2743 23.6839 23.8322 23.1213C24.39 22.5587 24.7034 21.7956 24.7034 21V3C24.7034 2.20435 24.39 1.44129 23.8322 0.87868C23.2743 0.316071 22.5177 0 21.7288 0L3.88136 0ZM12.8051 6C13.6008 6 14.224 6.693 14.1436 7.4925L13.6231 12.753C13.6056 12.9597 13.5119 13.1522 13.3604 13.2925C13.2089 13.4327 13.0107 13.5106 12.8051 13.5106C12.5994 13.5106 12.4013 13.4327 12.2498 13.2925C12.0983 13.1522 12.0046 12.9597 11.9871 12.753L11.4665 7.4925C11.4478 7.30385 11.4685 7.11334 11.5273 6.93325C11.586 6.75316 11.6815 6.58747 11.8076 6.44687C11.9337 6.30626 12.0876 6.19386 12.2594 6.11689C12.4312 6.03993 12.6171 6.00011 12.8051 6ZM12.8081 15C13.2025 15 13.5808 15.158 13.8597 15.4393C14.1387 15.7206 14.2954 16.1022 14.2954 16.5C14.2954 16.8978 14.1387 17.2794 13.8597 17.5607C13.5808 17.842 13.2025 18 12.8081 18C12.4136 18 12.0353 17.842 11.7564 17.5607C11.4775 17.2794 11.3208 16.8978 11.3208 16.5C11.3208 16.1022 11.4775 15.7206 11.7564 15.4393C12.0353 15.158 12.4136 15 12.8081 15Z" fill="currentColor"/>
        </svg>

        <svg id="search" width="16" height="16" viewBox="0 0 16 16" fill="none" xmlns="http://www.w3.org/2000/svg">
            <path d="M6.22094 12.4448C7.61839 12.4448 8.90916 11.9825 9.94746 11.2056L14.4812 15.7391C14.5637 15.8217 14.6617 15.8873 14.7696 15.9321C14.8775 15.9768 14.9931 15.9999 15.1099 16C15.2267 16.0001 15.3424 15.9772 15.4503 15.9325C15.5583 15.8879 15.6564 15.8225 15.739 15.7399C15.8217 15.6574 15.8873 15.5594 15.9321 15.4515C15.9768 15.3437 15.9999 15.228 16 15.1112C16.0001 14.9944 15.9772 14.8788 15.9325 14.7708C15.8879 14.6629 15.8225 14.5648 15.7399 14.4821L11.2062 9.94869C12.0454 8.82649 12.4813 7.4539 12.4431 6.05316C12.405 4.65243 11.8952 3.30556 10.9962 2.23064C10.0973 1.15572 8.86177 0.415689 7.4898 0.130366C6.11782 -0.154957 4.6897 0.0311346 3.43667 0.658509C2.18363 1.28588 1.17906 2.31781 0.58559 3.5872C-0.00787536 4.85659 -0.155481 6.28912 0.166672 7.65285C0.488826 9.01657 1.26188 10.2316 2.36066 11.1013C3.45943 11.971 4.81961 12.4444 6.22094 12.4448ZM6.22094 10.6669C5.04211 10.6669 3.91155 10.1987 3.07799 9.36515C2.24443 8.53164 1.77614 7.40115 1.77614 6.22238C1.77614 5.04361 2.24443 3.91312 3.07799 3.07961C3.91155 2.24609 5.04211 1.77783 6.22094 1.77783C7.39978 1.77783 8.53033 2.24609 9.36389 3.07961C10.1975 3.91312 10.6657 5.04361 10.6657 6.22238C10.6657 7.40115 10.1975 8.53164 9.36389 9.36515C8.53033 10.1987 7.39978 10.6669 6.22094 10.6669Z" fill="currentColor"/>
        </svg>


        <svg id="download" width="20" height="20" viewBox="0 0 20 20" fill="none" xmlns="http://www.w3.org/2000/svg">
            <path d="M17.5 18.5H18.5V17.5V14.75H19V17.5C19 18.3227 18.3227 19 17.5 19H2.5C1.67728 19 1 18.3227 1 17.5V14.75H1.5V17.5V18.5H2.5H17.5ZM9.75 10.2125V1H10.25V10.2125V12.6201L11.9557 10.921L14.4861 8.40035L14.8358 8.75L10 13.5858L5.16421 8.75L5.51387 8.40035L8.04426 10.921L9.75 12.6201V10.2125Z" fill="currentColor" stroke="currentColor" stroke-width="2"/>
        </svg>

        <svg id="plus" xmlns="http://www.w3.org/2000/svg" fill="none" viewBox="0 0 24 24" stroke-width="1.5" stroke="currentColor">
            <path stroke-linecap="round" stroke-linejoin="round" d="M12 4.5v15m7.5-7.5h-15" />
        </svg>


        <svg id="question" width="15" height="14" viewBox="0 0 15 14" fill="none" xmlns="http://www.w3.org/2000/svg">
            <path d="M1.875 0C1.37772 0 0.900806 0.184374 0.549175 0.512563C0.197544 0.840752 0 1.28587 0 1.75L0 12.25C0 12.7141 0.197544 13.1592 0.549175 13.4874C0.900806 13.8156 1.37772 14 1.875 14H13.125C13.6223 14 14.0992 13.8156 14.4508 13.4874C14.8025 13.1592 15 12.7141 15 12.25V1.75C15 1.28587 14.8025 0.840752 14.4508 0.512563C14.0992 0.184374 13.6223 0 13.125 0L1.875 0ZM5.1525 5.27887C5.12228 5.27926 5.09229 5.27388 5.06438 5.26308C5.03646 5.25227 5.0112 5.23626 4.99014 5.21603C4.96908 5.1958 4.95266 5.17177 4.94189 5.14542C4.93112 5.11906 4.92622 5.09093 4.9275 5.06275C5.01562 3.57962 6.31594 3.0625 7.50469 3.0625C8.81344 3.0625 10.0097 3.70125 10.0097 5.0225C10.0097 5.9675 9.41437 6.41725 8.84344 6.82237C8.1525 7.3115 7.89656 7.49438 7.89656 8.12263V8.2145C7.89656 8.27252 7.87187 8.32816 7.82792 8.36918C7.78396 8.4102 7.72435 8.43325 7.66219 8.43325H6.90281C6.8413 8.43326 6.78224 8.41069 6.7384 8.37042C6.69455 8.33015 6.66942 8.27541 6.66844 8.218L6.66469 8.02812C6.62906 7.217 7.12875 6.71738 7.75969 6.2895C8.31281 5.901 8.66437 5.6455 8.66437 5.08987C8.66437 4.368 8.07563 4.06787 7.4325 4.06787C6.67969 4.06787 6.25781 4.48612 6.17438 5.06012C6.1575 5.18 6.05438 5.27887 5.925 5.27887H5.15156H5.1525ZM7.33219 10.9165C6.78469 10.9165 6.38625 10.5717 6.38625 10.1054C6.38625 9.62237 6.78469 9.28288 7.33313 9.28288C7.90406 9.28288 8.29688 9.62237 8.29688 10.1054C8.29688 10.5717 7.90313 10.9165 7.33219 10.9165Z" fill="currentColor"/>
        </svg>

        <svg id="x-mark" xmlns="http://www.w3.org/2000/svg" fill="none" viewBox="0 0 24 24" stroke-width="1.5" stroke="currentColor">
            <path stroke-linecap="round" stroke-linejoin="round" d="M6 18 18 6M6 6l12 12" />
        </svg>

        <svg id="chevron-up" width="11" height="7" viewBox="0 0 11 7" fill="none" xmlns="http://www.w3.org/2000/svg">
            <path d="M0.909618 6.33265C1.08917 6.51114 1.33207 6.61133 1.58524 6.61133C1.83842 6.61133 2.08131 6.51114 2.26087 6.33265L5.70129 2.94015L9.09379 6.33265C9.27335 6.51114 9.51624 6.61133 9.76942 6.61133C10.0226 6.61133 10.2655 6.51114 10.445 6.33265C10.5349 6.24356 10.6062 6.13757 10.6548 6.02079C10.7035 5.90401 10.7285 5.77875 10.7285 5.65223C10.7285 5.52572 10.7035 5.40046 10.6548 5.28368C10.6062 5.1669 10.5349 5.06091 10.445 4.97182L6.38171 0.908481C6.29262 0.818657 6.18662 0.747363 6.06984 0.69871C5.95306 0.650056 5.8278 0.625007 5.70129 0.625007C5.57478 0.625007 5.44952 0.650056 5.33274 0.69871C5.21595 0.747363 5.10996 0.818657 5.02087 0.908481L0.909618 4.97182C0.819795 5.06091 0.748501 5.1669 0.699847 5.28368C0.651194 5.40046 0.626143 5.52572 0.626143 5.65223C0.626143 5.77875 0.651194 5.90401 0.699847 6.02079C0.748501 6.13757 0.819795 6.24356 0.909618 6.33265Z" fill="currentColor"/>
        </svg>

        <svg id="chevron-down" width="11" height="7" viewBox="0 0 11 7" fill="none" xmlns="http://www.w3.org/2000/svg">
            <path d="M10.4444 0.903676C10.2648 0.725186 10.0219 0.625 9.76876 0.625C9.51558 0.625 9.27269 0.725186 9.09313 0.903676L5.65272 4.29618L2.26021 0.903676C2.08066 0.725186 1.83777 0.625 1.58459 0.625C1.33141 0.625 1.08852 0.725186 0.908962 0.903676C0.819139 0.992766 0.747844 1.09876 0.699191 1.21554C0.650537 1.33232 0.625488 1.45758 0.625488 1.58409C0.625488 1.71061 0.650537 1.83586 0.699191 1.95265C0.747844 2.06943 0.819139 2.17542 0.908962 2.26451L4.9723 6.32785C5.06139 6.41767 5.16738 6.48897 5.28416 6.53762C5.40094 6.58627 5.5262 6.61132 5.65272 6.61132C5.77923 6.61132 5.90449 6.58627 6.02127 6.53762C6.13805 6.48897 6.24404 6.41767 6.33313 6.32785L10.4444 2.26451C10.5342 2.17542 10.6055 2.06943 10.6542 1.95265C10.7028 1.83586 10.7279 1.71061 10.7279 1.58409C10.7279 1.45758 10.7028 1.33232 10.6542 1.21554C10.6055 1.09876 10.5342 0.992766 10.4444 0.903676Z" fill="currentColor"/>
        </svg>

        <svg id="chevron-right" xmlns="http://www.w3.org/2000/svg" fill="none" viewBox="0 0 24 24" stroke-width="1.5" stroke="currentColor">
            <path stroke-linecap="round" stroke-linejoin="round" d="m8.25 4.5 7.5 7.5-7.5 7.5" />
        </svg>

        <svg id="delete" xmlns="http://www.w3.org/2000/svg" fill="none" viewBox="0 0 24 24" stroke-width="1.5" stroke="currentColor">
            <path stroke-linecap="round" stroke-linejoin="round" d="m14.74 9-.346 9m-4.788 0L9.26 9m9.968-3.21c.342.052.682.107 1.022.166m-1.022-.165L18.16 19.673a2.25 2.25 0 0 1-2.244 2.077H8.084a2.25 2.25 0 0 1-2.244-2.077L4.772 5.79m14.456 0a48.108 48.108 0 0 0-3.478-.397m-12 .562c.34-.059.68-.114 1.022-.165m0 0a48.11 48.11 0 0 1 3.478-.397m7.5 0v-.916c0-1.18-.91-2.164-2.09-2.201a51.964 51.964 0 0 0-3.32 0c-1.18.037-2.09 1.022-2.09 2.201v.916m7.5 0a48.667 48.667 0 0 0-7.5 0" />
        </svg>

        <svg id="sliders-vertical" xmlns="http://www.w3.org/2000/svg" fill="none" viewBox="0 0 24 24" stroke-width="1.5" stroke="currentColor">
            <path stroke-linecap="round" stroke-linejoin="round" d="M6 13.5V3.75m0 9.75a1.5 1.5 0 0 1 0 3m0-3a1.5 1.5 0 0 0 0 3m0 3.75V16.5m12-3V3.75m0 9.75a1.5 1.5 0 0 1 0 3m0-3a1.5 1.5 0 0 0 0 3m0 3.75V16.5m-6-9V3.75m0 3.75a1.5 1.5 0 0 1 0 3m0-3a1.5 1.5 0 0 0 0 3m0 9.75V10.5" />
        </svg>

        <svg id="no-symbol" xmlns="http://www.w3.org/2000/svg" fill="none" viewBox="0 0 24 24" stroke-width="1.5" stroke="currentColor">
            <path stroke-linecap="round" stroke-linejoin="round" d="M18.364 18.364A9 9 0 0 0 5.636 5.636m12.728 12.728A9 9 0 0 1 5.636 5.636m12.728 12.728L5.636 5.636" />
        </svg>

        <svg id="calendar" xmlns="http://www.w3.org/2000/svg" fill="none" viewBox="0 0 24 24" stroke-width="1.5" stroke="currentColor">
            <path stroke-linecap="round" stroke-linejoin="round" d="M6.75 3v2.25M17.25 3v2.25M3 18.75V7.5a2.25 2.25 0 0 1 2.25-2.25h13.5A2.25 2.25 0 0 1 21 7.5v11.25m-18 0A2.25 2.25 0 0 0 5.25 21h13.5A2.25 2.25 0 0 0 21 18.75m-18 0v-7.5A2.25 2.25 0 0 1 5.25 9h13.5A2.25 2.25 0 0 1 21 11.25v7.5m-9-6h.008v.008H12v-.008ZM12 15h.008v.008H12V15Zm0 2.25h.008v.008H12v-.008ZM9.75 15h.008v.008H9.75V15Zm0 2.25h.008v.008H9.75v-.008ZM7.5 15h.008v.008H7.5V15Zm0 2.25h.008v.008H7.5v-.008Zm6.75-4.5h.008v.008h-.008v-.008Zm0 2.25h.008v.008h-.008V15Zm0 2.25h.008v.008h-.008v-.008Zm2.25-4.5h.008v.008H16.5v-.008Zm0 2.25h.008v.008H16.5V15Z" />
        </svg>

        <svg id="error" xmlns="http://www.w3.org/2000/svg" fill="none" viewBox="0 0 24 24" stroke-width="1.5" stroke="currentColor">
            <path stroke-linecap="round" stroke-linejoin="round" d="M12 9v3.75m0-10.036A11.959 11.959 0 0 1 3.598 6 11.99 11.99 0 0 0 3 9.75c0 5.592 3.824 10.29 9 11.622 5.176-1.332 9-6.03 9-11.622 0-1.31-.21-2.57-.598-3.75h-.152c-3.196 0-6.1-1.25-8.25-3.286Zm0 13.036h.008v.008H12v-.008Z" />
        </svg>

        <svg id="arrow-spin" xmlns="http://www.w3.org/2000/svg" viewBox="0 0 512 512"><!--!Font Awesome Free 6.5.2 by @fontawesome - https://fontawesome.com License - https://fontawesome.com/license/free Copyright 2024 Fonticons, Inc.--><path d="M463.5 224H472c13.3 0 24-10.7 24-24V72c0-9.7-5.8-18.5-14.8-22.2s-19.3-1.7-26.2 5.2L413.4 96.6c-87.6-86.5-228.7-86.2-315.8 1c-87.5 87.5-87.5 229.3 0 316.8s229.3 87.5 316.8 0c12.5-12.5 12.5-32.8 0-45.3s-32.8-12.5-45.3 0c-62.5 62.5-163.8 62.5-226.3 0s-62.5-163.8 0-226.3c62.2-62.2 162.7-62.5 225.3-1L327 183c-6.9 6.9-8.9 17.2-5.2 26.2s12.5 14.8 22.2 14.8H463.5z"/></svg>

        <svg id="users" xmlns="http://www.w3.org/2000/svg" fill="none" viewBox="0 0 24 24" stroke-width="1.5" stroke="currentColor" >
            <path stroke-linecap="round" stroke-linejoin="round" d="M15 19.128a9.38 9.38 0 0 0 2.625.372 9.337 9.337 0 0 0 4.121-.952 4.125 4.125 0 0 0-7.533-2.493M15 19.128v-.003c0-1.113-.285-2.16-.786-3.07M15 19.128v.106A12.318 12.318 0 0 1 8.624 21c-2.331 0-4.512-.645-6.374-1.766l-.001-.109a6.375 6.375 0 0 1 11.964-3.07M12 6.375a3.375 3.375 0 1 1-6.75 0 3.375 3.375 0 0 1 6.75 0Zm8.25 2.25a2.625 2.625 0 1 1-5.25 0 2.625 2.625 0 0 1 5.25 0Z" />
        </svg>

        <svg id="wrench" xmlns="http://www.w3.org/2000/svg" fill="none" viewBox="0 0 24 24" stroke-width="1.5" stroke="currentColor" >
            <path stroke-linecap="round" stroke-linejoin="round" d="M21.75 6.75a4.5 4.5 0 0 1-4.884 4.484c-1.076-.091-2.264.071-2.95.904l-7.152 8.684a2.548 2.548 0 1 1-3.586-3.586l8.684-7.152c.833-.686.995-1.874.904-2.95a4.5 4.5 0 0 1 6.336-4.486l-3.276 3.276a3.004 3.004 0 0 0 2.25 2.25l3.276-3.276c.256.565.398 1.192.398 1.852Z" />
            <path stroke-linecap="round" stroke-linejoin="round" d="M4.867 19.125h.008v.008h-.008v-.008Z" />
        </svg>

        <svg id="user-plus" xmlns="http://www.w3.org/2000/svg" fill="none" viewBox="0 0 24 24" stroke-width="1.5" stroke="currentColor">
            <path stroke-linecap="round" stroke-linejoin="round" d="M18 7.5v3m0 0v3m0-3h3m-3 0h-3m-2.25-4.125a3.375 3.375 0 1 1-6.75 0 3.375 3.375 0 0 1 6.75 0ZM3 19.235v-.11a6.375 6.375 0 0 1 12.75 0v.109A12.318 12.318 0 0 1 9.374 21c-2.331 0-4.512-.645-6.374-1.766Z" />
        </svg>

        <svg id="eye" xmlns="http://www.w3.org/2000/svg" fill="none" viewBox="0 0 24 24" stroke-width="1.5" stroke="currentColor">
            <path stroke-linecap="round" stroke-linejoin="round" d="M2.036 12.322a1.012 1.012 0 0 1 0-.639C3.423 7.51 7.36 4.5 12 4.5c4.638 0 8.573 3.007 9.963 7.178.07.207.07.431 0 .639C20.577 16.49 16.64 19.5 12 19.5c-4.638 0-8.573-3.007-9.963-7.178Z" />
            <path stroke-linecap="round" stroke-linejoin="round" d="M15 12a3 3 0 1 1-6 0 3 3 0 0 1 6 0Z" />
        </svg>

        <svg id="email" xmlns="http://www.w3.org/2000/svg" fill="none" viewBox="0 0 24 24" stroke-width="1.5" stroke="currentColor">
            <path stroke-linecap="round" stroke-linejoin="round" d="M21.75 6.75v10.5a2.25 2.25 0 0 1-2.25 2.25h-15a2.25 2.25 0 0 1-2.25-2.25V6.75m19.5 0A2.25 2.25 0 0 0 19.5 4.5h-15a2.25 2.25 0 0 0-2.25 2.25m19.5 0v.243a2.25 2.25 0 0 1-1.07 1.916l-7.5 4.615a2.25 2.25 0 0 1-2.36 0L3.32 8.91a2.25 2.25 0 0 1-1.07-1.916V6.75" />
        </svg>

        <svg id="identity" xmlns="http://www.w3.org/2000/svg" fill="none" viewBox="0 0 24 24" stroke-width="1.5" stroke="currentColor">
            <path stroke-linecap="round" stroke-linejoin="round" d="M15 9h3.75M15 12h3.75M15 15h3.75M4.5 19.5h15a2.25 2.25 0 0 0 2.25-2.25V6.75A2.25 2.25 0 0 0 19.5 4.5h-15a2.25 2.25 0 0 0-2.25 2.25v10.5A2.25 2.25 0 0 0 4.5 19.5Zm6-10.125a1.875 1.875 0 1 1-3.75 0 1.875 1.875 0 0 1 3.75 0Zm1.294 6.336a6.721 6.721 0 0 1-3.17.789 6.721 6.721 0 0 1-3.168-.789 3.376 3.376 0 0 1 6.338 0Z" />
        </svg>

        <svg id="phone" xmlns="http://www.w3.org/2000/svg" fill="none" viewBox="0 0 24 24" stroke-width="1.5" stroke="currentColor">
            <path stroke-linecap="round" stroke-linejoin="round" d="M2.25 6.75c0 8.284 6.716 15 15 15h2.25a2.25 2.25 0 0 0 2.25-2.25v-1.372c0-.516-.351-.966-.852-1.091l-4.423-1.106c-.44-.11-.902.055-1.173.417l-.97 1.293c-.282.376-.769.542-1.21.38a12.035 12.035 0 0 1-7.143-7.143c-.162-.441.004-.928.38-1.21l1.293-.97c.363-.271.527-.734.417-1.173L6.963 3.102a1.125 1.125 0 0 0-1.091-.852H4.5A2.25 2.25 0 0 0 2.25 4.5v2.25Z" />
        </svg>

        <svg id="compass" xmlns="http://www.w3.org/2000/svg" viewBox="0 0 512 512"><!--!Font Awesome Free 6.5.2 by @fontawesome - https://fontawesome.com License - https://fontawesome.com/license/free Copyright 2024 Fonticons, Inc.--><path d="M464 256A208 208 0 1 0 48 256a208 208 0 1 0 416 0zM0 256a256 256 0 1 1 512 0A256 256 0 1 1 0 256zm306.7 69.1L162.4 380.6c-19.4 7.5-38.5-11.6-31-31l55.5-144.3c3.3-8.5 9.9-15.1 18.4-18.4l144.3-55.5c19.4-7.5 38.5 11.6 31 31L325.1 306.7c-3.2 8.5-9.9 15.1-18.4 18.4zM288 256a32 32 0 1 0 -64 0 32 32 0 1 0 64 0z"/></svg>

        <svg id="map-pin" xmlns="http://www.w3.org/2000/svg" fill="none" viewBox="0 0 24 24" stroke-width="1.5" stroke="currentColor">
            <path stroke-linecap="round" stroke-linejoin="round" d="M15 10.5a3 3 0 1 1-6 0 3 3 0 0 1 6 0Z" />
            <path stroke-linecap="round" stroke-linejoin="round" d="M19.5 10.5c0 7.142-7.5 11.25-7.5 11.25S4.5 17.642 4.5 10.5a7.5 7.5 0 1 1 15 0Z" />
        </svg>

        <svg id="globe" xmlns="http://www.w3.org/2000/svg" fill="none" viewBox="0 0 24 24" stroke-width="1.5" stroke="currentColor">
            <path stroke-linecap="round" stroke-linejoin="round" d="m6.115 5.19.319 1.913A6 6 0 0 0 8.11 10.36L9.75 12l-.387.775c-.217.433-.132.956.21 1.298l1.348 1.348c.21.21.329.497.329.795v1.089c0 .426.24.815.622 1.006l.153.076c.433.217.956.132 1.298-.21l.723-.723a8.7 8.7 0 0 0 2.288-4.042 1.087 1.087 0 0 0-.358-1.099l-1.33-1.108c-.251-.21-.582-.299-.905-.245l-1.17.195a1.125 1.125 0 0 1-.98-.314l-.295-.295a1.125 1.125 0 0 1 0-1.591l.13-.132a1.125 1.125 0 0 1 1.3-.21l.603.302a.809.809 0 0 0 1.086-1.086L14.25 7.5l1.256-.837a4.5 4.5 0 0 0 1.528-1.732l.146-.292M6.115 5.19A9 9 0 1 0 17.18 4.64M6.115 5.19A8.965 8.965 0 0 1 12 3c1.929 0 3.716.607 5.18 1.64" />
        </svg>

        <svg id="dollar" xmlns="http://www.w3.org/2000/svg" fill="none" viewBox="0 0 24 24" stroke-width="1.5" stroke="currentColor">
            <path stroke-linecap="round" stroke-linejoin="round" d="M12 6v12m-3-2.818.879.659c1.171.879 3.07.879 4.242 0 1.172-.879 1.172-2.303 0-3.182C13.536 12.219 12.768 12 12 12c-.725 0-1.45-.22-2.003-.659-1.106-.879-1.106-2.303 0-3.182s2.9-.879 4.006 0l.415.33M21 12a9 9 0 1 1-18 0 9 9 0 0 1 18 0Z" />
        </svg>

        <svg id="document" xmlns="http://www.w3.org/2000/svg" fill="none" viewBox="0 0 24 24" stroke-width="1.5" stroke="currentColor">
            <path stroke-linecap="round" stroke-linejoin="round" d="M19.5 14.25v-2.625a3.375 3.375 0 0 0-3.375-3.375h-1.5A1.125 1.125 0 0 1 13.5 7.125v-1.5a3.375 3.375 0 0 0-3.375-3.375H8.25m0 12.75h7.5m-7.5 3H12M10.5 2.25H5.625c-.621 0-1.125.504-1.125 1.125v17.25c0 .621.504 1.125 1.125 1.125h12.75c.621 0 1.125-.504 1.125-1.125V11.25a9 9 0 0 0-9-9Z" />
        </svg>

        <svg id="money" xmlns="http://www.w3.org/2000/svg" fill="none" viewBox="0 0 24 24" stroke-width="1.5" stroke="currentColor">
            <path stroke-linecap="round" stroke-linejoin="round" d="M2.25 18.75a60.07 60.07 0 0 1 15.797 2.101c.727.198 1.453-.342 1.453-1.096V18.75M3.75 4.5v.75A.75.75 0 0 1 3 6h-.75m0 0v-.375c0-.621.504-1.125 1.125-1.125H20.25M2.25 6v9m18-10.5v.75c0 .414.336.75.75.75h.75m-1.5-1.5h.375c.621 0 1.125.504 1.125 1.125v9.75c0 .621-.504 1.125-1.125 1.125h-.375m1.5-1.5H21a.75.75 0 0 0-.75.75v.75m0 0H3.75m0 0h-.375a1.125 1.125 0 0 1-1.125-1.125V15m1.5 1.5v-.75A.75.75 0 0 0 3 15h-.75M15 10.5a3 3 0 1 1-6 0 3 3 0 0 1 6 0Zm3 0h.008v.008H18V10.5Zm-12 0h.008v.008H6V10.5Z" />
        </svg>

        <svg id="book-open" xmlns="http://www.w3.org/2000/svg" fill="none" viewBox="0 0 24 24" stroke-width="1.5" stroke="currentColor">
            <path stroke-linecap="round" stroke-linejoin="round" d="M12 6.042A8.967 8.967 0 0 0 6 3.75c-1.052 0-2.062.18-3 .512v14.25A8.987 8.987 0 0 1 6 18c2.305 0 4.408.867 6 2.292m0-14.25a8.966 8.966 0 0 1 6-2.292c1.052 0 2.062.18 3 .512v14.25A8.987 8.987 0 0 0 18 18a8.967 8.967 0 0 0-6 2.292m0-14.25v14.25" />
        </svg>

        <svg id="document-money" xmlns="http://www.w3.org/2000/svg" height="24px" viewBox="0 -960 960 960" width="24px" fill="currentColor"><path d="M456.92-215h60v-40h50q12.77 0 21.39-8.62 8.61-8.61 8.61-21.38v-120q0-12.77-8.61-21.38-8.62-8.62-21.39-8.62h-130v-60h160v-60h-80v-40h-60v40h-50q-12.77 0-21.38 8.62-8.62 8.61-8.62 21.38v120q0 12.77 8.62 21.38 8.61 8.62 21.38 8.62h130v60h-160v60h80v40ZM252.31-100Q222-100 201-121q-21-21-21-51.31v-615.38Q180-818 201-839q21-21 51.31-21H570l210 210v477.69Q780-142 759-121q-21 21-51.31 21H252.31ZM540-644.62V-800H252.31q-4.62 0-8.46 3.85-3.85 3.84-3.85 8.46v615.38q0 4.62 3.85 8.46 3.84 3.85 8.46 3.85h455.38q4.62 0 8.46-3.85 3.85-3.84 3.85-8.46v-472.31H540ZM240-800v155.38V-800-160v-640Z"/></svg>

        <svg id="clock" xmlns="http://www.w3.org/2000/svg" fill="none" viewBox="0 0 24 24" stroke-width="1.5" stroke="currentColor">
            <path stroke-linecap="round" stroke-linejoin="round" d="M12 6v6h4.5m4.5 0a9 9 0 1 1-18 0 9 9 0 0 1 18 0Z" />
        </svg>

        <svg id="invoice" xmlns="http://www.w3.org/2000/svg" height="24px" viewBox="0 -960 960 960" width="24px" fill="currentColor"><path d="M240-100q-41.92 0-70.96-29.04Q140-158.08 140-199.82V-300h120v-552.31l55.39 47.7 56.15-47.7 56.15 47.7 56.16-47.7 56.15 47.7 56.15-47.7 56.16 47.7 56.15-47.7 56.15 47.7 55.39-47.7V-200q0 41.92-29.04 70.96Q761.92-100 720-100H240Zm480-60q17 0 28.5-11.5T760-200v-560H320v460h360v100q0 17 11.5 28.5T720-160ZM367.69-610v-60h226.92v60H367.69Zm0 120v-60h226.92v60H367.69Zm310-114.62q-14.69 0-25.04-10.34-10.34-10.35-10.34-25.04t10.34-25.04q10.35-10.34 25.04-10.34t25.04 10.34q10.35 10.35 10.35 25.04t-10.35 25.04q-10.35 10.34-25.04 10.34Zm0 120q-14.69 0-25.04-10.34-10.34-10.35-10.34-25.04t10.34-25.04q10.35-10.34 25.04-10.34t25.04 10.34q10.35 10.35 10.35 25.04t-10.35 25.04q-10.35 10.34-25.04 10.34ZM240-160h380v-80H200v40q0 17 11.5 28.5T240-160Zm-40 0v-80 80Z"/></svg>

        <svg id="credit-card" xmlns="http://www.w3.org/2000/svg" fill="none" viewBox="0 0 24 24" stroke-width="1.5" stroke="currentColor">
            <path stroke-linecap="round" stroke-linejoin="round" d="M2.25 8.25h19.5M2.25 9h19.5m-16.5 5.25h6m-6 2.25h3m-3.75 3h15a2.25 2.25 0 0 0 2.25-2.25V6.75A2.25 2.25 0 0 0 19.5 4.5h-15a2.25 2.25 0 0 0-2.25 2.25v10.5A2.25 2.25 0 0 0 4.5 19.5Z" />
        </svg>

        <svg id="filter" xmlns="http://www.w3.org/2000/svg" fill="none" viewBox="0 0 24 24" stroke-width="1.5" stroke="currentColor">
            <path stroke-linecap="round" stroke-linejoin="round" d="M6 13.5V3.75m0 9.75a1.5 1.5 0 0 1 0 3m0-3a1.5 1.5 0 0 0 0 3m0 3.75V16.5m12-3V3.75m0 9.75a1.5 1.5 0 0 1 0 3m0-3a1.5 1.5 0 0 0 0 3m0 3.75V16.5m-6-9V3.75m0 3.75a1.5 1.5 0 0 1 0 3m0-3a1.5 1.5 0 0 0 0 3m0 9.75V10.5" />
        </svg>

        <svg id="menu-dots" xmlns="http://www.w3.org/2000/svg" viewBox="0 0 128 512"><!--!Font Awesome Free 6.5.2 by @fontawesome - https://fontawesome.com License - https://fontawesome.com/license/free Copyright 2024 Fonticons, Inc.--><path d="M64 360a56 56 0 1 0 0 112 56 56 0 1 0 0-112zm0-160a56 56 0 1 0 0 112 56 56 0 1 0 0-112zM120 96A56 56 0 1 0 8 96a56 56 0 1 0 112 0z"/></svg>

        <svg id="otlub-cart" width="24" height="24" viewBox="0 0 24 24" fill="none" xmlns="http://www.w3.org/2000/svg">
            <path d="M13.5317 8.90297H22.5266C22.915 8.90297 23.2355 8.33927 23.2355 7.63948C23.2355 6.9397 22.915 6.37598 22.5266 6.37598H13.5317C13.1433 6.37598 12.8228 6.9397 12.8228 7.63948C12.8228 8.33927 13.1433 8.90297 13.5317 8.90297Z" fill="#F69320"/>
            <path d="M1.18876 3.14233C0.826375 3.01992 0.523752 2.7537 0.345282 2.40034C0.166812 2.04698 0.126707 1.63437 0.233299 1.25032C0.282276 1.06012 0.366844 0.882148 0.48225 0.726864C0.597656 0.571581 0.741472 0.442138 0.905195 0.346139C1.06892 0.250141 1.24926 0.189525 1.43561 0.167878C1.62195 0.146232 1.81053 0.163979 1.99025 0.220081L9.67807 2.66932C10.0414 2.79031 10.3451 3.05631 10.5238 3.41011C10.7025 3.76391 10.7419 4.17728 10.6337 4.56134C10.5518 4.87415 10.3752 5.15033 10.1304 5.34796C9.88557 5.5456 9.58607 5.65389 9.2774 5.65638C9.14144 5.65661 9.00618 5.63475 8.87658 5.59158" fill="#0D1646"/>
            <path d="M12.3422 5.33235H23.2914C23.6798 5.33235 24.0003 4.76215 24.0003 4.06885C24.0003 3.37554 23.6798 2.77295 23.2914 2.77295H12.3422C11.9538 2.77295 11.6333 3.34314 11.6333 4.06885C11.6333 4.79455 11.9785 5.33235 12.3422 5.33235Z" fill="#FFC113"/>
            <path d="M14.5922 12.9394H21.7623C22.1507 12.9394 22.4712 12.3693 22.4712 11.6436C22.4712 10.9179 22.1507 10.3477 21.7623 10.3477H14.5922C14.1977 10.3477 13.8833 10.9114 13.8833 11.6436C13.8833 12.3757 14.1915 12.9394 14.5922 12.9394Z" fill="#EB2127"/>
            <path d="M12.4843 2.81836C12.102 2.70173 11.7383 3.16177 11.6705 3.85508C11.6026 4.54838 11.8617 5.19633 12.2501 5.31296L22.4717 8.99979C22.8539 9.11642 23.2177 8.65637 23.2855 7.96307C23.3533 7.26976 23.0944 6.62181 22.706 6.50518" fill="#FECF0A"/>
            <path d="M13.6923 6.51172C13.3039 6.39508 12.9402 6.85513 12.8724 7.54844C12.8046 8.24174 13.0697 8.88969 13.4519 9.00632L21.6822 12.894C22.0706 13.0106 22.4343 12.5506 22.496 11.8638C22.5576 11.1769 22.3049 10.516 21.9227 10.3994" fill="#F69320"/>
            <path d="M12.8171 22.3025C12.8256 22.6452 12.93 22.9776 13.1174 23.2582C13.3047 23.5388 13.5665 23.7551 13.8702 23.8801C14.1739 24.0051 14.5058 24.0332 14.8246 23.9609C15.1434 23.8886 15.4349 23.7192 15.6625 23.4737C15.8902 23.2282 16.0439 22.9176 16.1045 22.5808C16.165 22.244 16.1297 21.8959 16.003 21.5801C15.8763 21.2642 15.6639 20.9946 15.3922 20.8051C15.1205 20.6155 14.8016 20.5143 14.4754 20.5142C14.2547 20.5167 14.0366 20.565 13.8337 20.6563C13.6307 20.7477 13.4469 20.8802 13.2929 21.0464C13.1388 21.2125 13.0175 21.409 12.9358 21.6246C12.8542 21.8401 12.8138 22.0705 12.8171 22.3025Z" fill="#0D1646"/>
            <path d="M22.2065 14.2938C22.0894 14.2938 22.4408 14.2938 22.3113 14.2938H14.7099C14.2976 14.2981 13.8856 14.2721 13.4769 14.216C13.1539 14.1755 12.837 14.0928 12.5336 13.9698C12.2785 13.8614 12.0428 13.708 11.8369 13.5163C11.6277 13.3247 11.4543 13.094 11.3253 12.8359C11.0355 12.32 10.8605 11.7418 10.8135 11.1448C10.758 10.4968 10.7333 9.84886 10.7333 9.16204V4.30889C10.707 3.84731 10.5141 3.4137 10.1938 3.09664C9.87358 2.77958 9.45017 2.60303 9.0102 2.60303C8.57023 2.60303 8.14682 2.77958 7.82655 3.09664C7.50629 3.4137 7.31339 3.84731 7.28711 4.30889V9.09075C7.28711 9.60911 7.28714 10.1275 7.31796 10.6394C7.34258 11.1455 7.39611 11.6497 7.47826 12.1491C7.56218 12.631 7.68798 13.1039 7.85425 13.5616C8.01838 14.0237 8.24249 14.4598 8.52012 14.8575C8.83663 15.3428 9.2358 15.7624 9.69759 16.0951C10.0894 16.3735 10.5171 16.5917 10.9676 16.743C11.367 16.8819 11.7811 16.969 12.2006 17.0022C12.6137 17.0346 12.9959 17.0476 13.3473 17.0476H22.151L22.2065 14.2938Z" fill="#0D1646"/>
            <path d="M2.93413 1.581C2.92686 1.88422 2.83466 2.17847 2.66908 2.4269C2.50349 2.67533 2.27187 2.86692 2.0032 2.9777C1.73453 3.08848 1.44081 3.11354 1.15867 3.04972C0.876522 2.98589 0.618453 2.83604 0.416934 2.6189C0.215414 2.40177 0.0792784 2.12699 0.0255965 1.82896C-0.0280854 1.53093 0.00309244 1.22288 0.115152 0.943349C0.227212 0.663822 0.415222 0.425228 0.655649 0.257435C0.896076 0.089642 1.17831 9.64047e-05 1.46692 0C1.66204 0.00253686 1.85472 0.0454472 2.03406 0.126276C2.2134 0.207104 2.37584 0.324259 2.51209 0.471072C2.64834 0.617884 2.75575 0.791468 2.82817 0.981908C2.90059 1.17235 2.93658 1.37592 2.93413 1.581Z" fill="#F7941D"/>
        </svg>

        <svg id="google" width="18" height="18" viewBox="0 0 18 18" fill="none" xmlns="http://www.w3.org/2000/svg">
            <path d="M9.0002 3.75C10.2128 3.75 11.3261 4.16515 12.2149 4.85555L14.9428 2.25307C13.3568 0.854965 11.2807 0 9.0002 0C5.54449 0 2.5477 1.94994 1.03955 4.80739L4.07288 7.20209C4.80768 5.18953 6.73331 3.75 9.0002 3.75Z" fill="#E63312"/>
            <path d="M17.922 10.1264C17.9689 9.75764 18 9.3815 18 9C18 8.35661 17.9297 7.73012 17.8014 7.125H9V10.875H13.8647C13.4711 11.8978 12.7704 12.7633 11.8785 13.3646L14.9231 15.7682C16.537 14.3516 17.6415 12.3678 17.922 10.1264Z" fill="#2196F3"/>
            <path d="M3.75 8.99998C3.75 8.3674 3.86765 7.7637 4.07268 7.20207L1.03935 4.80737C0.37825 6.06 0 7.48511 0 8.99998C0 10.4979 0.371292 11.9072 1.01866 13.1497L4.05583 10.7519C3.86133 10.2033 3.75 9.61531 3.75 8.99998Z" fill="#FFC107"/>
            <path d="M8.99989 14.25C6.71574 14.25 4.77771 12.7886 4.05573 10.752L1.01855 13.1497C2.51933 16.0301 5.52725 18 8.99989 18C11.2707 18 13.3415 17.1564 14.923 15.7682L11.8784 13.3646C11.0558 13.9192 10.0712 14.25 8.99989 14.25Z" fill="#00B060"/>
            <path opacity="0.1" d="M8.99998 17.8125C6.35123 17.8125 3.96953 16.7197 2.28564 14.9785C3.93401 16.8284 6.32733 18 8.99998 18C11.6479 18 14.0214 16.8515 15.6661 15.0306C13.9872 16.7435 11.6236 17.8125 8.99998 17.8125Z" fill="black"/>
            <path opacity="0.1" d="M9 10.6875V10.875H13.8647L13.9406 10.6875H9Z" fill="black"/>
            <path opacity="0.2" d="M9 7.125V7.3125H17.8392C17.8274 7.25061 17.8145 7.18643 17.8014 7.125H9Z" fill="white"/>
            <path d="M17.8014 7.125H9V10.875H13.8647C13.1082 12.8412 11.2329 14.25 9 14.25C6.10052 14.25 3.75 11.8995 3.75 9C3.75 6.10048 6.10052 3.75 9 3.75C10.0514 3.75 11.0204 4.073 11.8414 4.60551C11.967 4.68718 12.0967 4.76385 12.2147 4.85555L14.9426 2.25307L14.8811 2.20573C13.3027 0.837799 11.2527 0 9 0C4.02942 0 0 4.02942 0 9C0 13.9705 4.02942 18 9 18C13.5883 18 17.3666 14.5641 17.922 10.1264C17.9689 9.75764 18 9.3815 18 9C18 8.35661 17.9297 7.73012 17.8014 7.125Z" fill="url(#paint0_linear_2168_2317)"/>
            <path opacity="0.1" d="M11.8414 4.41812C11.0204 3.8856 10.0514 3.56261 9 3.56261C6.10052 3.56261 3.75 5.91309 3.75 8.81261C3.75 8.84424 3.75043 8.86896 3.75097 8.9005C3.80156 6.04474 6.13216 3.75011 9 3.75011C10.0514 3.75011 11.0204 4.0731 11.8414 4.60562C11.967 4.68729 12.0967 4.76396 12.2147 4.85565L14.9426 2.25317L12.2147 4.66815C12.0967 4.57646 11.967 4.49979 11.8414 4.41812Z" fill="black"/>
            <path opacity="0.2" d="M9 0.1875C11.2313 0.1875 13.2622 1.01129 14.8345 2.3562L14.9426 2.25307L14.8601 2.1812C13.2817 0.813269 11.2527 0 9 0C4.02942 0 0 4.02942 0 9C0 9.03163 0.00439455 9.06216 0.00471495 9.09375C0.0555267 4.16689 4.06105 0.1875 9 0.1875Z" fill="white"/>
            <defs>
            <linearGradient id="paint0_linear_2168_2317" x1="0" y1="9" x2="18" y2="9" gradientUnits="userSpaceOnUse">
            <stop stop-color="white" stop-opacity="0.2"/>
            <stop offset="1" stop-color="white" stop-opacity="0"/>
            </linearGradient>
            </defs>
        </svg>

        <svg id="apple" width="17" height="18" viewBox="0 0 17 18" fill="none" xmlns="http://www.w3.org/2000/svg">
            <path d="M13.5502 17.28C12.5702 18.23 11.5002 18.08 10.4702 17.63C9.38016 17.17 8.38016 17.15 7.23016 17.63C5.79016 18.25 5.03016 18.07 4.17016 17.28C-0.709836 12.25 0.0101643 4.59 5.55016 4.31C6.90016 4.38 7.84016 5.05 8.63016 5.11C9.81016 4.87 10.9402 4.18 12.2002 4.27C13.7102 4.39 14.8502 4.99 15.6002 6.07C12.4802 7.94 13.2202 12.05 16.0802 13.2C15.5102 14.7 14.7702 16.19 13.5402 17.29L13.5502 17.28ZM8.53016 4.25C8.38016 2.02 10.1902 0.18 12.2702 0C12.5602 2.58 9.93016 4.5 8.53016 4.25Z" fill="black"/>
        </svg>

        <svg id="arrow-up" xmlns="http://www.w3.org/2000/svg" fill="none" viewBox="0 0 24 24" stroke-width="1.5" stroke="currentColor" class="size-6">
            <path stroke-linecap="round" stroke-linejoin="round" d="M4.5 10.5 12 3m0 0 7.5 7.5M12 3v18" />
        </svg>


    </defs>
</svg>